<mxfile host="65bd71144e">
    <diagram id="_EZDFH39LWAVj_CZhaiq" name="Pagina-1">
        <mxGraphModel dx="1969" dy="1683" grid="1" gridSize="10" guides="1" tooltips="1" connect="1" arrows="1" fold="1" page="1" pageScale="1" pageWidth="827" pageHeight="1169" background="none" math="0" shadow="0">
            <root>
                <mxCell id="0"/>
                <mxCell id="1" parent="0"/>
                <mxCell id="38" value="Dipartimenti" style="shape=table;startSize=30;container=1;collapsible=0;childLayout=tableLayout;fontStyle=1;align=center;shadow=0;fillStyle=auto;strokeColor=#FFFFFF;fillColor=#FFFFFF;gradientColor=none;gradientDirection=west;fontColor=#18141D;swimlaneFillColor=default;rounded=0;swimlaneLine=1;" parent="1" vertex="1">
                    <mxGeometry x="750" y="80" width="440" height="160" as="geometry"/>
                </mxCell>
                <mxCell id="39" value="" style="shape=tableRow;horizontal=0;startSize=0;swimlaneHead=0;swimlaneBody=0;top=0;left=0;bottom=0;right=0;collapsible=0;dropTarget=0;fillColor=none;points=[[0,0.5],[1,0.5]];portConstraint=eastwest;shadow=0;fillStyle=auto;strokeColor=#F00800;" parent="38" vertex="1">
                    <mxGeometry y="30" width="440" height="29" as="geometry"/>
                </mxCell>
                <mxCell id="116" value="nome" style="shape=partialRectangle;html=1;whiteSpace=wrap;connectable=0;top=0;left=0;bottom=0;right=0;overflow=hidden;shadow=0;fillStyle=auto;fillColor=none;" parent="39" vertex="1">
                    <mxGeometry width="109" height="29" as="geometry">
                        <mxRectangle width="109" height="29" as="alternateBounds"/>
                    </mxGeometry>
                </mxCell>
                <mxCell id="40" value="tpo" style="shape=partialRectangle;html=1;whiteSpace=wrap;connectable=0;top=0;left=0;bottom=0;right=0;overflow=hidden;shadow=0;fillStyle=auto;fillColor=none;" parent="39" vertex="1">
                    <mxGeometry x="109" width="111" height="29" as="geometry">
                        <mxRectangle width="111" height="29" as="alternateBounds"/>
                    </mxGeometry>
                </mxCell>
                <mxCell id="41" value="attributo" style="shape=partialRectangle;html=1;whiteSpace=wrap;connectable=0;fillColor=none;top=0;left=0;bottom=0;right=0;overflow=hidden;shadow=0;fillStyle=auto;strokeColor=#F00800;" parent="39" vertex="1">
                    <mxGeometry x="220" width="109" height="29" as="geometry">
                        <mxRectangle width="109" height="29" as="alternateBounds"/>
                    </mxGeometry>
                </mxCell>
                <mxCell id="42" value="attributo" style="shape=partialRectangle;html=1;whiteSpace=wrap;connectable=0;fillColor=none;top=0;left=0;bottom=0;right=0;overflow=hidden;shadow=0;fillStyle=auto;strokeColor=#F00800;rotation=0;" parent="39" vertex="1">
                    <mxGeometry x="329" width="111" height="29" relative="1" as="geometry">
                        <mxRectangle width="111" height="29" as="alternateBounds"/>
                    </mxGeometry>
                </mxCell>
                <mxCell id="43" value="" style="shape=tableRow;horizontal=0;startSize=0;swimlaneHead=0;swimlaneBody=0;top=0;left=0;bottom=0;right=0;collapsible=0;dropTarget=0;fillColor=none;points=[[0,0.5],[1,0.5]];portConstraint=eastwest;shadow=0;fillStyle=auto;strokeColor=#F00800;" parent="38" vertex="1">
                    <mxGeometry y="59" width="440" height="52" as="geometry"/>
                </mxCell>
                <mxCell id="117" value="id_dipartimento" style="shape=partialRectangle;html=1;whiteSpace=wrap;connectable=0;top=0;left=0;bottom=0;right=0;overflow=hidden;shadow=0;fillStyle=auto;fillColor=none;" parent="43" vertex="1">
                    <mxGeometry width="109" height="52" as="geometry">
                        <mxRectangle width="109" height="52" as="alternateBounds"/>
                    </mxGeometry>
                </mxCell>
                <mxCell id="44" value="int" style="shape=partialRectangle;html=1;whiteSpace=wrap;connectable=0;top=0;left=0;bottom=0;right=0;overflow=hidden;shadow=0;fillStyle=auto;fillColor=none;" parent="43" vertex="1">
                    <mxGeometry x="109" width="111" height="52" as="geometry">
                        <mxRectangle width="111" height="52" as="alternateBounds"/>
                    </mxGeometry>
                </mxCell>
                <mxCell id="45" value="AUTO_INCREMENT" style="shape=partialRectangle;html=1;whiteSpace=wrap;connectable=0;fillColor=none;top=0;left=0;bottom=0;right=0;overflow=hidden;shadow=0;fillStyle=auto;strokeColor=#F00800;" parent="43" vertex="1">
                    <mxGeometry x="220" width="109" height="52" as="geometry">
                        <mxRectangle width="109" height="52" as="alternateBounds"/>
                    </mxGeometry>
                </mxCell>
                <mxCell id="46" value="&lt;span style=&quot;color: rgb(255, 255, 255); font-size: 10px;&quot;&gt;primary key&lt;/span&gt;" style="shape=partialRectangle;html=1;whiteSpace=wrap;connectable=0;fillColor=none;top=0;left=0;bottom=0;right=0;overflow=hidden;shadow=0;fillStyle=auto;strokeColor=#F00800;" parent="43" vertex="1">
                    <mxGeometry x="329" width="111" height="52" as="geometry">
                        <mxRectangle width="111" height="52" as="alternateBounds"/>
                    </mxGeometry>
                </mxCell>
                <mxCell id="47" value="" style="shape=tableRow;horizontal=0;startSize=0;swimlaneHead=0;swimlaneBody=0;top=0;left=0;bottom=0;right=0;collapsible=0;dropTarget=0;fillColor=none;points=[[0,0.5],[1,0.5]];portConstraint=eastwest;shadow=0;fillStyle=auto;strokeColor=#F00800;" parent="38" vertex="1">
                    <mxGeometry y="111" width="440" height="49" as="geometry"/>
                </mxCell>
                <mxCell id="118" value="nome_dipartimento" style="shape=partialRectangle;html=1;whiteSpace=wrap;connectable=0;top=0;left=0;bottom=0;right=0;overflow=hidden;shadow=0;fillStyle=auto;fillColor=none;" parent="47" vertex="1">
                    <mxGeometry width="109" height="49" as="geometry">
                        <mxRectangle width="109" height="49" as="alternateBounds"/>
                    </mxGeometry>
                </mxCell>
                <mxCell id="48" value="&lt;span style=&quot;color: rgb(255, 255, 255); font-size: 10px;&quot;&gt;varchar(100)&lt;/span&gt;" style="shape=partialRectangle;html=1;whiteSpace=wrap;connectable=0;top=0;left=0;bottom=0;right=0;overflow=hidden;shadow=0;fillStyle=auto;fillColor=none;" parent="47" vertex="1">
                    <mxGeometry x="109" width="111" height="49" as="geometry">
                        <mxRectangle width="111" height="49" as="alternateBounds"/>
                    </mxGeometry>
                </mxCell>
                <mxCell id="49" value="not_null" style="shape=partialRectangle;html=1;whiteSpace=wrap;connectable=0;fillColor=none;top=0;left=0;bottom=0;right=0;overflow=hidden;shadow=0;fillStyle=auto;strokeColor=#F00800;" parent="47" vertex="1">
                    <mxGeometry x="220" width="109" height="49" as="geometry">
                        <mxRectangle width="109" height="49" as="alternateBounds"/>
                    </mxGeometry>
                </mxCell>
                <mxCell id="50" value="" style="shape=partialRectangle;html=1;whiteSpace=wrap;connectable=0;fillColor=none;top=0;left=0;bottom=0;right=0;overflow=hidden;shadow=0;fillStyle=auto;strokeColor=#F00800;" parent="47" vertex="1">
                    <mxGeometry x="329" width="111" height="49" as="geometry">
                        <mxRectangle width="111" height="49" as="alternateBounds"/>
                    </mxGeometry>
                </mxCell>
                <mxCell id="231" value="appelli" style="shape=table;startSize=30;container=1;collapsible=0;childLayout=tableLayout;fontStyle=1;align=center;shadow=0;fillStyle=auto;strokeColor=#FFFFFF;fillColor=#FFFFFF;gradientColor=none;gradientDirection=west;fontColor=#18141D;swimlaneFillColor=default;rounded=0;swimlaneLine=1;" parent="1" vertex="1">
                    <mxGeometry x="750" y="530" width="440" height="213" as="geometry"/>
                </mxCell>
                <mxCell id="232" value="" style="shape=tableRow;horizontal=0;startSize=0;swimlaneHead=0;swimlaneBody=0;top=0;left=0;bottom=0;right=0;collapsible=0;dropTarget=0;fillColor=none;points=[[0,0.5],[1,0.5]];portConstraint=eastwest;shadow=0;fillStyle=auto;strokeColor=#F00800;" parent="231" vertex="1">
                    <mxGeometry y="30" width="440" height="30" as="geometry"/>
                </mxCell>
                <mxCell id="233" value="nome" style="shape=partialRectangle;html=1;whiteSpace=wrap;connectable=0;top=0;left=0;bottom=0;right=0;overflow=hidden;shadow=0;fillStyle=auto;fillColor=none;" parent="232" vertex="1">
                    <mxGeometry width="109" height="30" as="geometry">
                        <mxRectangle width="109" height="30" as="alternateBounds"/>
                    </mxGeometry>
                </mxCell>
                <mxCell id="234" value="tpo" style="shape=partialRectangle;html=1;whiteSpace=wrap;connectable=0;top=0;left=0;bottom=0;right=0;overflow=hidden;shadow=0;fillStyle=auto;fillColor=none;" parent="232" vertex="1">
                    <mxGeometry x="109" width="111" height="30" as="geometry">
                        <mxRectangle width="111" height="30" as="alternateBounds"/>
                    </mxGeometry>
                </mxCell>
                <mxCell id="235" value="attributo" style="shape=partialRectangle;html=1;whiteSpace=wrap;connectable=0;fillColor=none;top=0;left=0;bottom=0;right=0;overflow=hidden;shadow=0;fillStyle=auto;strokeColor=#F00800;" parent="232" vertex="1">
                    <mxGeometry x="220" width="109" height="30" as="geometry">
                        <mxRectangle width="109" height="30" as="alternateBounds"/>
                    </mxGeometry>
                </mxCell>
                <mxCell id="236" value="attributo" style="shape=partialRectangle;html=1;whiteSpace=wrap;connectable=0;fillColor=none;top=0;left=0;bottom=0;right=0;overflow=hidden;shadow=0;fillStyle=auto;strokeColor=#F00800;rotation=0;" parent="232" vertex="1">
                    <mxGeometry x="329" width="111" height="30" relative="1" as="geometry">
                        <mxRectangle width="111" height="30" as="alternateBounds"/>
                    </mxGeometry>
                </mxCell>
                <mxCell id="237" value="" style="shape=tableRow;horizontal=0;startSize=0;swimlaneHead=0;swimlaneBody=0;top=0;left=0;bottom=0;right=0;collapsible=0;dropTarget=0;fillColor=none;points=[[0,0.5],[1,0.5]];portConstraint=eastwest;shadow=0;fillStyle=auto;strokeColor=#F00800;" parent="231" vertex="1">
                    <mxGeometry y="60" width="440" height="53" as="geometry"/>
                </mxCell>
                <mxCell id="238" value="id_appelli" style="shape=partialRectangle;html=1;whiteSpace=wrap;connectable=0;top=0;left=0;bottom=0;right=0;overflow=hidden;shadow=0;fillStyle=auto;fillColor=none;" parent="237" vertex="1">
                    <mxGeometry width="109" height="53" as="geometry">
                        <mxRectangle width="109" height="53" as="alternateBounds"/>
                    </mxGeometry>
                </mxCell>
                <mxCell id="239" value="int" style="shape=partialRectangle;html=1;whiteSpace=wrap;connectable=0;top=0;left=0;bottom=0;right=0;overflow=hidden;shadow=0;fillStyle=auto;fillColor=none;" parent="237" vertex="1">
                    <mxGeometry x="109" width="111" height="53" as="geometry">
                        <mxRectangle width="111" height="53" as="alternateBounds"/>
                    </mxGeometry>
                </mxCell>
                <mxCell id="240" value="AUTO_INCREMENT" style="shape=partialRectangle;html=1;whiteSpace=wrap;connectable=0;fillColor=none;top=0;left=0;bottom=0;right=0;overflow=hidden;shadow=0;fillStyle=auto;strokeColor=#F00800;" parent="237" vertex="1">
                    <mxGeometry x="220" width="109" height="53" as="geometry">
                        <mxRectangle width="109" height="53" as="alternateBounds"/>
                    </mxGeometry>
                </mxCell>
                <mxCell id="241" value="&lt;span style=&quot;color: rgb(255, 255, 255); font-size: 10px;&quot;&gt;primary key&lt;/span&gt;" style="shape=partialRectangle;html=1;whiteSpace=wrap;connectable=0;fillColor=none;top=0;left=0;bottom=0;right=0;overflow=hidden;shadow=0;fillStyle=auto;strokeColor=#F00800;" parent="237" vertex="1">
                    <mxGeometry x="329" width="111" height="53" as="geometry">
                        <mxRectangle width="111" height="53" as="alternateBounds"/>
                    </mxGeometry>
                </mxCell>
                <mxCell id="242" value="" style="shape=tableRow;horizontal=0;startSize=0;swimlaneHead=0;swimlaneBody=0;top=0;left=0;bottom=0;right=0;collapsible=0;dropTarget=0;fillColor=none;points=[[0,0.5],[1,0.5]];portConstraint=eastwest;shadow=0;fillStyle=auto;strokeColor=#F00800;" parent="231" vertex="1">
                    <mxGeometry y="113" width="440" height="50" as="geometry"/>
                </mxCell>
                <mxCell id="243" value="data" style="shape=partialRectangle;html=1;whiteSpace=wrap;connectable=0;top=0;left=0;bottom=0;right=0;overflow=hidden;shadow=0;fillStyle=auto;fillColor=none;" parent="242" vertex="1">
                    <mxGeometry width="109" height="50" as="geometry">
                        <mxRectangle width="109" height="50" as="alternateBounds"/>
                    </mxGeometry>
                </mxCell>
                <mxCell id="244" value="date" style="shape=partialRectangle;html=1;whiteSpace=wrap;connectable=0;top=0;left=0;bottom=0;right=0;overflow=hidden;shadow=0;fillStyle=auto;fillColor=none;" parent="242" vertex="1">
                    <mxGeometry x="109" width="111" height="50" as="geometry">
                        <mxRectangle width="111" height="50" as="alternateBounds"/>
                    </mxGeometry>
                </mxCell>
                <mxCell id="245" value="not_null" style="shape=partialRectangle;html=1;whiteSpace=wrap;connectable=0;fillColor=none;top=0;left=0;bottom=0;right=0;overflow=hidden;shadow=0;fillStyle=auto;strokeColor=#F00800;" parent="242" vertex="1">
                    <mxGeometry x="220" width="109" height="50" as="geometry">
                        <mxRectangle width="109" height="50" as="alternateBounds"/>
                    </mxGeometry>
                </mxCell>
                <mxCell id="246" value="" style="shape=partialRectangle;html=1;whiteSpace=wrap;connectable=0;fillColor=none;top=0;left=0;bottom=0;right=0;overflow=hidden;shadow=0;fillStyle=auto;strokeColor=#F00800;" parent="242" vertex="1">
                    <mxGeometry x="329" width="111" height="50" as="geometry">
                        <mxRectangle width="111" height="50" as="alternateBounds"/>
                    </mxGeometry>
                </mxCell>
                <mxCell id="418" style="shape=tableRow;horizontal=0;startSize=0;swimlaneHead=0;swimlaneBody=0;top=0;left=0;bottom=0;right=0;collapsible=0;dropTarget=0;fillColor=none;points=[[0,0.5],[1,0.5]];portConstraint=eastwest;shadow=0;fillStyle=auto;strokeColor=#F00800;" parent="231" vertex="1">
                    <mxGeometry y="163" width="440" height="50" as="geometry"/>
                </mxCell>
                <mxCell id="419" value="id_corso" style="shape=partialRectangle;html=1;whiteSpace=wrap;connectable=0;top=0;left=0;bottom=0;right=0;overflow=hidden;shadow=0;fillStyle=auto;fillColor=none;" parent="418" vertex="1">
                    <mxGeometry width="109" height="50" as="geometry">
                        <mxRectangle width="109" height="50" as="alternateBounds"/>
                    </mxGeometry>
                </mxCell>
                <mxCell id="420" value="int" style="shape=partialRectangle;html=1;whiteSpace=wrap;connectable=0;top=0;left=0;bottom=0;right=0;overflow=hidden;shadow=0;fillStyle=auto;fillColor=none;" parent="418" vertex="1">
                    <mxGeometry x="109" width="111" height="50" as="geometry">
                        <mxRectangle width="111" height="50" as="alternateBounds"/>
                    </mxGeometry>
                </mxCell>
                <mxCell id="421" style="shape=partialRectangle;html=1;whiteSpace=wrap;connectable=0;fillColor=none;top=0;left=0;bottom=0;right=0;overflow=hidden;shadow=0;fillStyle=auto;strokeColor=#F00800;" parent="418" vertex="1">
                    <mxGeometry x="220" width="109" height="50" as="geometry">
                        <mxRectangle width="109" height="50" as="alternateBounds"/>
                    </mxGeometry>
                </mxCell>
                <mxCell id="422" value="FK" style="shape=partialRectangle;html=1;whiteSpace=wrap;connectable=0;fillColor=none;top=0;left=0;bottom=0;right=0;overflow=hidden;shadow=0;fillStyle=auto;strokeColor=#F00800;" parent="418" vertex="1">
                    <mxGeometry x="329" width="111" height="50" as="geometry">
                        <mxRectangle width="111" height="50" as="alternateBounds"/>
                    </mxGeometry>
                </mxCell>
                <mxCell id="247" value="corsi" style="shape=table;startSize=30;container=1;collapsible=0;childLayout=tableLayout;fontStyle=1;align=center;shadow=0;fillStyle=auto;strokeColor=#FFFFFF;fillColor=#FFFFFF;gradientColor=none;gradientDirection=west;fontColor=#18141D;swimlaneFillColor=default;rounded=0;swimlaneLine=1;" parent="1" vertex="1">
                    <mxGeometry x="750" y="1033" width="440" height="213" as="geometry"/>
                </mxCell>
                <mxCell id="248" value="" style="shape=tableRow;horizontal=0;startSize=0;swimlaneHead=0;swimlaneBody=0;top=0;left=0;bottom=0;right=0;collapsible=0;dropTarget=0;fillColor=none;points=[[0,0.5],[1,0.5]];portConstraint=eastwest;shadow=0;fillStyle=auto;strokeColor=#F00800;" parent="247" vertex="1">
                    <mxGeometry y="30" width="440" height="30" as="geometry"/>
                </mxCell>
                <mxCell id="249" value="nome" style="shape=partialRectangle;html=1;whiteSpace=wrap;connectable=0;top=0;left=0;bottom=0;right=0;overflow=hidden;shadow=0;fillStyle=auto;fillColor=none;" parent="248" vertex="1">
                    <mxGeometry width="109" height="30" as="geometry">
                        <mxRectangle width="109" height="30" as="alternateBounds"/>
                    </mxGeometry>
                </mxCell>
                <mxCell id="250" value="tpo" style="shape=partialRectangle;html=1;whiteSpace=wrap;connectable=0;top=0;left=0;bottom=0;right=0;overflow=hidden;shadow=0;fillStyle=auto;fillColor=none;" parent="248" vertex="1">
                    <mxGeometry x="109" width="111" height="30" as="geometry">
                        <mxRectangle width="111" height="30" as="alternateBounds"/>
                    </mxGeometry>
                </mxCell>
                <mxCell id="251" value="attributo" style="shape=partialRectangle;html=1;whiteSpace=wrap;connectable=0;fillColor=none;top=0;left=0;bottom=0;right=0;overflow=hidden;shadow=0;fillStyle=auto;strokeColor=#F00800;" parent="248" vertex="1">
                    <mxGeometry x="220" width="109" height="30" as="geometry">
                        <mxRectangle width="109" height="30" as="alternateBounds"/>
                    </mxGeometry>
                </mxCell>
                <mxCell id="252" value="attributo" style="shape=partialRectangle;html=1;whiteSpace=wrap;connectable=0;fillColor=none;top=0;left=0;bottom=0;right=0;overflow=hidden;shadow=0;fillStyle=auto;strokeColor=#F00800;rotation=0;" parent="248" vertex="1">
                    <mxGeometry x="329" width="111" height="30" relative="1" as="geometry">
                        <mxRectangle width="111" height="30" as="alternateBounds"/>
                    </mxGeometry>
                </mxCell>
                <mxCell id="253" value="" style="shape=tableRow;horizontal=0;startSize=0;swimlaneHead=0;swimlaneBody=0;top=0;left=0;bottom=0;right=0;collapsible=0;dropTarget=0;fillColor=none;points=[[0,0.5],[1,0.5]];portConstraint=eastwest;shadow=0;fillStyle=auto;strokeColor=#F00800;" parent="247" vertex="1">
                    <mxGeometry y="60" width="440" height="53" as="geometry"/>
                </mxCell>
                <mxCell id="254" value="id_corsi" style="shape=partialRectangle;html=1;whiteSpace=wrap;connectable=0;top=0;left=0;bottom=0;right=0;overflow=hidden;shadow=0;fillStyle=auto;fillColor=none;" parent="253" vertex="1">
                    <mxGeometry width="109" height="53" as="geometry">
                        <mxRectangle width="109" height="53" as="alternateBounds"/>
                    </mxGeometry>
                </mxCell>
                <mxCell id="255" value="int" style="shape=partialRectangle;html=1;whiteSpace=wrap;connectable=0;top=0;left=0;bottom=0;right=0;overflow=hidden;shadow=0;fillStyle=auto;fillColor=none;" parent="253" vertex="1">
                    <mxGeometry x="109" width="111" height="53" as="geometry">
                        <mxRectangle width="111" height="53" as="alternateBounds"/>
                    </mxGeometry>
                </mxCell>
                <mxCell id="256" value="AUTO_INCREMENT" style="shape=partialRectangle;html=1;whiteSpace=wrap;connectable=0;fillColor=none;top=0;left=0;bottom=0;right=0;overflow=hidden;shadow=0;fillStyle=auto;strokeColor=#F00800;" parent="253" vertex="1">
                    <mxGeometry x="220" width="109" height="53" as="geometry">
                        <mxRectangle width="109" height="53" as="alternateBounds"/>
                    </mxGeometry>
                </mxCell>
                <mxCell id="257" value="&lt;span style=&quot;color: rgb(255, 255, 255); font-size: 10px;&quot;&gt;primary key&lt;/span&gt;" style="shape=partialRectangle;html=1;whiteSpace=wrap;connectable=0;fillColor=none;top=0;left=0;bottom=0;right=0;overflow=hidden;shadow=0;fillStyle=auto;strokeColor=#F00800;" parent="253" vertex="1">
                    <mxGeometry x="329" width="111" height="53" as="geometry">
                        <mxRectangle width="111" height="53" as="alternateBounds"/>
                    </mxGeometry>
                </mxCell>
                <mxCell id="258" value="" style="shape=tableRow;horizontal=0;startSize=0;swimlaneHead=0;swimlaneBody=0;top=0;left=0;bottom=0;right=0;collapsible=0;dropTarget=0;fillColor=none;points=[[0,0.5],[1,0.5]];portConstraint=eastwest;shadow=0;fillStyle=auto;strokeColor=#F00800;" parent="247" vertex="1">
                    <mxGeometry y="113" width="440" height="50" as="geometry"/>
                </mxCell>
                <mxCell id="259" value="nome_corso" style="shape=partialRectangle;html=1;whiteSpace=wrap;connectable=0;top=0;left=0;bottom=0;right=0;overflow=hidden;shadow=0;fillStyle=auto;fillColor=none;" parent="258" vertex="1">
                    <mxGeometry width="109" height="50" as="geometry">
                        <mxRectangle width="109" height="50" as="alternateBounds"/>
                    </mxGeometry>
                </mxCell>
                <mxCell id="260" value="&lt;span style=&quot;color: rgb(255, 255, 255); font-size: 10px;&quot;&gt;varchar(100)&lt;/span&gt;" style="shape=partialRectangle;html=1;whiteSpace=wrap;connectable=0;top=0;left=0;bottom=0;right=0;overflow=hidden;shadow=0;fillStyle=auto;fillColor=none;" parent="258" vertex="1">
                    <mxGeometry x="109" width="111" height="50" as="geometry">
                        <mxRectangle width="111" height="50" as="alternateBounds"/>
                    </mxGeometry>
                </mxCell>
                <mxCell id="261" value="not_null" style="shape=partialRectangle;html=1;whiteSpace=wrap;connectable=0;fillColor=none;top=0;left=0;bottom=0;right=0;overflow=hidden;shadow=0;fillStyle=auto;strokeColor=#F00800;" parent="258" vertex="1">
                    <mxGeometry x="220" width="109" height="50" as="geometry">
                        <mxRectangle width="109" height="50" as="alternateBounds"/>
                    </mxGeometry>
                </mxCell>
                <mxCell id="262" value="" style="shape=partialRectangle;html=1;whiteSpace=wrap;connectable=0;fillColor=none;top=0;left=0;bottom=0;right=0;overflow=hidden;shadow=0;fillStyle=auto;strokeColor=#F00800;" parent="258" vertex="1">
                    <mxGeometry x="329" width="111" height="50" as="geometry">
                        <mxRectangle width="111" height="50" as="alternateBounds"/>
                    </mxGeometry>
                </mxCell>
                <mxCell id="403" style="shape=tableRow;horizontal=0;startSize=0;swimlaneHead=0;swimlaneBody=0;top=0;left=0;bottom=0;right=0;collapsible=0;dropTarget=0;fillColor=none;points=[[0,0.5],[1,0.5]];portConstraint=eastwest;shadow=0;fillStyle=auto;strokeColor=#F00800;" parent="247" vertex="1">
                    <mxGeometry y="163" width="440" height="50" as="geometry"/>
                </mxCell>
                <mxCell id="404" value="id_facolta" style="shape=partialRectangle;html=1;whiteSpace=wrap;connectable=0;top=0;left=0;bottom=0;right=0;overflow=hidden;shadow=0;fillStyle=auto;fillColor=none;" parent="403" vertex="1">
                    <mxGeometry width="109" height="50" as="geometry">
                        <mxRectangle width="109" height="50" as="alternateBounds"/>
                    </mxGeometry>
                </mxCell>
                <mxCell id="405" value="int" style="shape=partialRectangle;html=1;whiteSpace=wrap;connectable=0;top=0;left=0;bottom=0;right=0;overflow=hidden;shadow=0;fillStyle=auto;fillColor=none;" parent="403" vertex="1">
                    <mxGeometry x="109" width="111" height="50" as="geometry">
                        <mxRectangle width="111" height="50" as="alternateBounds"/>
                    </mxGeometry>
                </mxCell>
                <mxCell id="406" style="shape=partialRectangle;html=1;whiteSpace=wrap;connectable=0;fillColor=none;top=0;left=0;bottom=0;right=0;overflow=hidden;shadow=0;fillStyle=auto;strokeColor=#F00800;" parent="403" vertex="1">
                    <mxGeometry x="220" width="109" height="50" as="geometry">
                        <mxRectangle width="109" height="50" as="alternateBounds"/>
                    </mxGeometry>
                </mxCell>
                <mxCell id="407" value="FK" style="shape=partialRectangle;html=1;whiteSpace=wrap;connectable=0;fillColor=none;top=0;left=0;bottom=0;right=0;overflow=hidden;shadow=0;fillStyle=auto;strokeColor=#F00800;" parent="403" vertex="1">
                    <mxGeometry x="329" width="111" height="50" as="geometry">
                        <mxRectangle width="111" height="50" as="alternateBounds"/>
                    </mxGeometry>
                </mxCell>
                <mxCell id="263" value="appelli_studenti" style="shape=table;startSize=30;container=1;collapsible=0;childLayout=tableLayout;fontStyle=1;align=center;shadow=0;fillStyle=auto;strokeColor=#FFFFFF;fillColor=#FFFFFF;gradientColor=none;gradientDirection=west;fontColor=#18141D;swimlaneFillColor=default;rounded=0;swimlaneLine=1;" parent="1" vertex="1">
                    <mxGeometry x="1220" y="420" width="410" height="262.99999999999966" as="geometry"/>
                </mxCell>
                <mxCell id="264" value="" style="shape=tableRow;horizontal=0;startSize=0;swimlaneHead=0;swimlaneBody=0;top=0;left=0;bottom=0;right=0;collapsible=0;dropTarget=0;fillColor=none;points=[[0,0.5],[1,0.5]];portConstraint=eastwest;shadow=0;fillStyle=auto;strokeColor=#F00800;" parent="263" vertex="1">
                    <mxGeometry y="30" width="410" height="30" as="geometry"/>
                </mxCell>
                <mxCell id="265" value="nome" style="shape=partialRectangle;html=1;whiteSpace=wrap;connectable=0;top=0;left=0;bottom=0;right=0;overflow=hidden;shadow=0;fillStyle=auto;fillColor=none;" parent="264" vertex="1">
                    <mxGeometry width="102" height="30" as="geometry">
                        <mxRectangle width="102" height="30" as="alternateBounds"/>
                    </mxGeometry>
                </mxCell>
                <mxCell id="266" value="tpo" style="shape=partialRectangle;html=1;whiteSpace=wrap;connectable=0;top=0;left=0;bottom=0;right=0;overflow=hidden;shadow=0;fillStyle=auto;fillColor=none;" parent="264" vertex="1">
                    <mxGeometry x="102" width="103" height="30" as="geometry">
                        <mxRectangle width="103" height="30" as="alternateBounds"/>
                    </mxGeometry>
                </mxCell>
                <mxCell id="267" value="attributo" style="shape=partialRectangle;html=1;whiteSpace=wrap;connectable=0;fillColor=none;top=0;left=0;bottom=0;right=0;overflow=hidden;shadow=0;fillStyle=auto;strokeColor=#F00800;" parent="264" vertex="1">
                    <mxGeometry x="205" width="102" height="30" as="geometry">
                        <mxRectangle width="102" height="30" as="alternateBounds"/>
                    </mxGeometry>
                </mxCell>
                <mxCell id="268" value="attributo" style="shape=partialRectangle;html=1;whiteSpace=wrap;connectable=0;fillColor=none;top=0;left=0;bottom=0;right=0;overflow=hidden;shadow=0;fillStyle=auto;strokeColor=#F00800;rotation=0;" parent="264" vertex="1">
                    <mxGeometry x="307" width="103" height="30" relative="1" as="geometry">
                        <mxRectangle width="103" height="30" as="alternateBounds"/>
                    </mxGeometry>
                </mxCell>
                <mxCell id="269" value="" style="shape=tableRow;horizontal=0;startSize=0;swimlaneHead=0;swimlaneBody=0;top=0;left=0;bottom=0;right=0;collapsible=0;dropTarget=0;fillColor=none;points=[[0,0.5],[1,0.5]];portConstraint=eastwest;shadow=0;fillStyle=auto;strokeColor=#F00800;" parent="263" vertex="1">
                    <mxGeometry y="60" width="410" height="53" as="geometry"/>
                </mxCell>
                <mxCell id="270" value="id_appelli" style="shape=partialRectangle;html=1;whiteSpace=wrap;connectable=0;top=0;left=0;bottom=0;right=0;overflow=hidden;shadow=0;fillStyle=auto;fillColor=none;" parent="269" vertex="1">
                    <mxGeometry width="102" height="53" as="geometry">
                        <mxRectangle width="102" height="53" as="alternateBounds"/>
                    </mxGeometry>
                </mxCell>
                <mxCell id="271" value="int" style="shape=partialRectangle;html=1;whiteSpace=wrap;connectable=0;top=0;left=0;bottom=0;right=0;overflow=hidden;shadow=0;fillStyle=auto;fillColor=none;" parent="269" vertex="1">
                    <mxGeometry x="102" width="103" height="53" as="geometry">
                        <mxRectangle width="103" height="53" as="alternateBounds"/>
                    </mxGeometry>
                </mxCell>
                <mxCell id="272" value="" style="shape=partialRectangle;html=1;whiteSpace=wrap;connectable=0;fillColor=none;top=0;left=0;bottom=0;right=0;overflow=hidden;shadow=0;fillStyle=auto;strokeColor=#F00800;" parent="269" vertex="1">
                    <mxGeometry x="205" width="102" height="53" as="geometry">
                        <mxRectangle width="102" height="53" as="alternateBounds"/>
                    </mxGeometry>
                </mxCell>
                <mxCell id="273" value="FK" style="shape=partialRectangle;html=1;whiteSpace=wrap;connectable=0;fillColor=none;top=0;left=0;bottom=0;right=0;overflow=hidden;shadow=0;fillStyle=auto;strokeColor=#F00800;" parent="269" vertex="1">
                    <mxGeometry x="307" width="103" height="53" as="geometry">
                        <mxRectangle width="103" height="53" as="alternateBounds"/>
                    </mxGeometry>
                </mxCell>
                <mxCell id="274" value="" style="shape=tableRow;horizontal=0;startSize=0;swimlaneHead=0;swimlaneBody=0;top=0;left=0;bottom=0;right=0;collapsible=0;dropTarget=0;fillColor=none;points=[[0,0.5],[1,0.5]];portConstraint=eastwest;shadow=0;fillStyle=auto;strokeColor=#F00800;" parent="263" vertex="1">
                    <mxGeometry y="113" width="410" height="50" as="geometry"/>
                </mxCell>
                <mxCell id="275" value="id_studenti" style="shape=partialRectangle;html=1;whiteSpace=wrap;connectable=0;top=0;left=0;bottom=0;right=0;overflow=hidden;shadow=0;fillStyle=auto;fillColor=none;" parent="274" vertex="1">
                    <mxGeometry width="102" height="50" as="geometry">
                        <mxRectangle width="102" height="50" as="alternateBounds"/>
                    </mxGeometry>
                </mxCell>
                <mxCell id="276" value="" style="shape=partialRectangle;html=1;whiteSpace=wrap;connectable=0;top=0;left=0;bottom=0;right=0;overflow=hidden;shadow=0;fillStyle=auto;fillColor=none;" parent="274" vertex="1">
                    <mxGeometry x="102" width="103" height="50" as="geometry">
                        <mxRectangle width="103" height="50" as="alternateBounds"/>
                    </mxGeometry>
                </mxCell>
                <mxCell id="277" value="" style="shape=partialRectangle;html=1;whiteSpace=wrap;connectable=0;fillColor=none;top=0;left=0;bottom=0;right=0;overflow=hidden;shadow=0;fillStyle=auto;strokeColor=#F00800;" parent="274" vertex="1">
                    <mxGeometry x="205" width="102" height="50" as="geometry">
                        <mxRectangle width="102" height="50" as="alternateBounds"/>
                    </mxGeometry>
                </mxCell>
                <mxCell id="278" value="FK" style="shape=partialRectangle;html=1;whiteSpace=wrap;connectable=0;fillColor=none;top=0;left=0;bottom=0;right=0;overflow=hidden;shadow=0;fillStyle=auto;strokeColor=#F00800;" parent="274" vertex="1">
                    <mxGeometry x="307" width="103" height="50" as="geometry">
                        <mxRectangle width="103" height="50" as="alternateBounds"/>
                    </mxGeometry>
                </mxCell>
                <mxCell id="428" style="shape=tableRow;horizontal=0;startSize=0;swimlaneHead=0;swimlaneBody=0;top=0;left=0;bottom=0;right=0;collapsible=0;dropTarget=0;fillColor=none;points=[[0,0.5],[1,0.5]];portConstraint=eastwest;shadow=0;fillStyle=auto;strokeColor=#F00800;" parent="263" vertex="1">
                    <mxGeometry y="163" width="410" height="50" as="geometry"/>
                </mxCell>
                <mxCell id="429" value="voto" style="shape=partialRectangle;html=1;whiteSpace=wrap;connectable=0;top=0;left=0;bottom=0;right=0;overflow=hidden;shadow=0;fillStyle=auto;fillColor=none;" parent="428" vertex="1">
                    <mxGeometry width="102" height="50" as="geometry">
                        <mxRectangle width="102" height="50" as="alternateBounds"/>
                    </mxGeometry>
                </mxCell>
                <mxCell id="430" value="int" style="shape=partialRectangle;html=1;whiteSpace=wrap;connectable=0;top=0;left=0;bottom=0;right=0;overflow=hidden;shadow=0;fillStyle=auto;fillColor=none;" parent="428" vertex="1">
                    <mxGeometry x="102" width="103" height="50" as="geometry">
                        <mxRectangle width="103" height="50" as="alternateBounds"/>
                    </mxGeometry>
                </mxCell>
                <mxCell id="431" value="null" style="shape=partialRectangle;html=1;whiteSpace=wrap;connectable=0;fillColor=none;top=0;left=0;bottom=0;right=0;overflow=hidden;shadow=0;fillStyle=auto;strokeColor=#F00800;" parent="428" vertex="1">
                    <mxGeometry x="205" width="102" height="50" as="geometry">
                        <mxRectangle width="102" height="50" as="alternateBounds"/>
                    </mxGeometry>
                </mxCell>
                <mxCell id="432" value="&lt;br&gt;" style="shape=partialRectangle;html=1;whiteSpace=wrap;connectable=0;fillColor=none;top=0;left=0;bottom=0;right=0;overflow=hidden;shadow=0;fillStyle=auto;strokeColor=#F00800;" parent="428" vertex="1">
                    <mxGeometry x="307" width="103" height="50" as="geometry">
                        <mxRectangle width="103" height="50" as="alternateBounds"/>
                    </mxGeometry>
                </mxCell>
                <mxCell id="506" style="shape=tableRow;horizontal=0;startSize=0;swimlaneHead=0;swimlaneBody=0;top=0;left=0;bottom=0;right=0;collapsible=0;dropTarget=0;fillColor=none;points=[[0,0.5],[1,0.5]];portConstraint=eastwest;shadow=0;fillStyle=auto;strokeColor=#F00800;" vertex="1" parent="263">
                    <mxGeometry y="213" width="410" height="50" as="geometry"/>
                </mxCell>
                <mxCell id="507" value="id_appelli_studenti" style="shape=partialRectangle;html=1;whiteSpace=wrap;connectable=0;top=0;left=0;bottom=0;right=0;overflow=hidden;shadow=0;fillStyle=auto;fillColor=none;" vertex="1" parent="506">
                    <mxGeometry width="102" height="50" as="geometry">
                        <mxRectangle width="102" height="50" as="alternateBounds"/>
                    </mxGeometry>
                </mxCell>
                <mxCell id="508" value="int" style="shape=partialRectangle;html=1;whiteSpace=wrap;connectable=0;top=0;left=0;bottom=0;right=0;overflow=hidden;shadow=0;fillStyle=auto;fillColor=none;" vertex="1" parent="506">
                    <mxGeometry x="102" width="103" height="50" as="geometry">
                        <mxRectangle width="103" height="50" as="alternateBounds"/>
                    </mxGeometry>
                </mxCell>
                <mxCell id="509" style="shape=partialRectangle;html=1;whiteSpace=wrap;connectable=0;fillColor=none;top=0;left=0;bottom=0;right=0;overflow=hidden;shadow=0;fillStyle=auto;strokeColor=#F00800;" vertex="1" parent="506">
                    <mxGeometry x="205" width="102" height="50" as="geometry">
                        <mxRectangle width="102" height="50" as="alternateBounds"/>
                    </mxGeometry>
                </mxCell>
                <mxCell id="510" value="primary key" style="shape=partialRectangle;html=1;whiteSpace=wrap;connectable=0;fillColor=none;top=0;left=0;bottom=0;right=0;overflow=hidden;shadow=0;fillStyle=auto;strokeColor=#F00800;" vertex="1" parent="506">
                    <mxGeometry x="307" width="103" height="50" as="geometry">
                        <mxRectangle width="103" height="50" as="alternateBounds"/>
                    </mxGeometry>
                </mxCell>
                <mxCell id="279" value="studenti" style="shape=table;startSize=30;container=1;collapsible=0;childLayout=tableLayout;fontStyle=1;align=center;shadow=0;fillStyle=auto;strokeColor=#FFFFFF;fillColor=#FFFFFF;gradientColor=none;gradientDirection=west;fontColor=#18141D;swimlaneFillColor=default;rounded=0;swimlaneLine=1;" parent="1" vertex="1">
                    <mxGeometry x="750" y="280" width="440" height="213" as="geometry"/>
                </mxCell>
                <mxCell id="280" value="" style="shape=tableRow;horizontal=0;startSize=0;swimlaneHead=0;swimlaneBody=0;top=0;left=0;bottom=0;right=0;collapsible=0;dropTarget=0;fillColor=none;points=[[0,0.5],[1,0.5]];portConstraint=eastwest;shadow=0;fillStyle=auto;strokeColor=#F00800;" parent="279" vertex="1">
                    <mxGeometry y="30" width="440" height="30" as="geometry"/>
                </mxCell>
                <mxCell id="281" value="nome" style="shape=partialRectangle;html=1;whiteSpace=wrap;connectable=0;top=0;left=0;bottom=0;right=0;overflow=hidden;shadow=0;fillStyle=auto;fillColor=none;" parent="280" vertex="1">
                    <mxGeometry width="109" height="30" as="geometry">
                        <mxRectangle width="109" height="30" as="alternateBounds"/>
                    </mxGeometry>
                </mxCell>
                <mxCell id="282" value="tpo" style="shape=partialRectangle;html=1;whiteSpace=wrap;connectable=0;top=0;left=0;bottom=0;right=0;overflow=hidden;shadow=0;fillStyle=auto;fillColor=none;" parent="280" vertex="1">
                    <mxGeometry x="109" width="111" height="30" as="geometry">
                        <mxRectangle width="111" height="30" as="alternateBounds"/>
                    </mxGeometry>
                </mxCell>
                <mxCell id="283" value="attributo" style="shape=partialRectangle;html=1;whiteSpace=wrap;connectable=0;fillColor=none;top=0;left=0;bottom=0;right=0;overflow=hidden;shadow=0;fillStyle=auto;strokeColor=#F00800;" parent="280" vertex="1">
                    <mxGeometry x="220" width="109" height="30" as="geometry">
                        <mxRectangle width="109" height="30" as="alternateBounds"/>
                    </mxGeometry>
                </mxCell>
                <mxCell id="284" value="attributo" style="shape=partialRectangle;html=1;whiteSpace=wrap;connectable=0;fillColor=none;top=0;left=0;bottom=0;right=0;overflow=hidden;shadow=0;fillStyle=auto;strokeColor=#F00800;rotation=0;" parent="280" vertex="1">
                    <mxGeometry x="329" width="111" height="30" relative="1" as="geometry">
                        <mxRectangle width="111" height="30" as="alternateBounds"/>
                    </mxGeometry>
                </mxCell>
                <mxCell id="285" value="" style="shape=tableRow;horizontal=0;startSize=0;swimlaneHead=0;swimlaneBody=0;top=0;left=0;bottom=0;right=0;collapsible=0;dropTarget=0;fillColor=none;points=[[0,0.5],[1,0.5]];portConstraint=eastwest;shadow=0;fillStyle=auto;strokeColor=#F00800;" parent="279" vertex="1">
                    <mxGeometry y="60" width="440" height="53" as="geometry"/>
                </mxCell>
                <mxCell id="286" value="id_studenti" style="shape=partialRectangle;html=1;whiteSpace=wrap;connectable=0;top=0;left=0;bottom=0;right=0;overflow=hidden;shadow=0;fillStyle=auto;fillColor=none;" parent="285" vertex="1">
                    <mxGeometry width="109" height="53" as="geometry">
                        <mxRectangle width="109" height="53" as="alternateBounds"/>
                    </mxGeometry>
                </mxCell>
                <mxCell id="287" value="int" style="shape=partialRectangle;html=1;whiteSpace=wrap;connectable=0;top=0;left=0;bottom=0;right=0;overflow=hidden;shadow=0;fillStyle=auto;fillColor=none;" parent="285" vertex="1">
                    <mxGeometry x="109" width="111" height="53" as="geometry">
                        <mxRectangle width="111" height="53" as="alternateBounds"/>
                    </mxGeometry>
                </mxCell>
                <mxCell id="288" value="AUTO_INCREMENT" style="shape=partialRectangle;html=1;whiteSpace=wrap;connectable=0;fillColor=none;top=0;left=0;bottom=0;right=0;overflow=hidden;shadow=0;fillStyle=auto;strokeColor=#F00800;" parent="285" vertex="1">
                    <mxGeometry x="220" width="109" height="53" as="geometry">
                        <mxRectangle width="109" height="53" as="alternateBounds"/>
                    </mxGeometry>
                </mxCell>
                <mxCell id="289" value="&lt;span style=&quot;color: rgb(255, 255, 255); font-size: 10px;&quot;&gt;primary key&lt;/span&gt;" style="shape=partialRectangle;html=1;whiteSpace=wrap;connectable=0;fillColor=none;top=0;left=0;bottom=0;right=0;overflow=hidden;shadow=0;fillStyle=auto;strokeColor=#F00800;" parent="285" vertex="1">
                    <mxGeometry x="329" width="111" height="53" as="geometry">
                        <mxRectangle width="111" height="53" as="alternateBounds"/>
                    </mxGeometry>
                </mxCell>
                <mxCell id="290" value="" style="shape=tableRow;horizontal=0;startSize=0;swimlaneHead=0;swimlaneBody=0;top=0;left=0;bottom=0;right=0;collapsible=0;dropTarget=0;fillColor=none;points=[[0,0.5],[1,0.5]];portConstraint=eastwest;shadow=0;fillStyle=auto;strokeColor=#F00800;" parent="279" vertex="1">
                    <mxGeometry y="113" width="440" height="50" as="geometry"/>
                </mxCell>
                <mxCell id="291" value="nome_studenti" style="shape=partialRectangle;html=1;whiteSpace=wrap;connectable=0;top=0;left=0;bottom=0;right=0;overflow=hidden;shadow=0;fillStyle=auto;fillColor=none;" parent="290" vertex="1">
                    <mxGeometry width="109" height="50" as="geometry">
                        <mxRectangle width="109" height="50" as="alternateBounds"/>
                    </mxGeometry>
                </mxCell>
                <mxCell id="292" value="&lt;meta charset=&quot;utf-8&quot;&gt;&lt;span style=&quot;color: rgb(255, 255, 255); font-family: Helvetica; font-size: 10px; font-style: normal; font-variant-ligatures: normal; font-variant-caps: normal; font-weight: 400; letter-spacing: normal; orphans: 2; text-align: center; text-indent: 0px; text-transform: none; widows: 2; word-spacing: 0px; -webkit-text-stroke-width: 0px; background-color: rgb(42, 37, 47); text-decoration-thickness: initial; text-decoration-style: initial; text-decoration-color: initial; float: none; display: inline !important;&quot;&gt;varchar(100)&lt;/span&gt;" style="shape=partialRectangle;html=1;whiteSpace=wrap;connectable=0;top=0;left=0;bottom=0;right=0;overflow=hidden;shadow=0;fillStyle=auto;fillColor=none;" parent="290" vertex="1">
                    <mxGeometry x="109" width="111" height="50" as="geometry">
                        <mxRectangle width="111" height="50" as="alternateBounds"/>
                    </mxGeometry>
                </mxCell>
                <mxCell id="293" value="not_null" style="shape=partialRectangle;html=1;whiteSpace=wrap;connectable=0;fillColor=none;top=0;left=0;bottom=0;right=0;overflow=hidden;shadow=0;fillStyle=auto;strokeColor=#F00800;" parent="290" vertex="1">
                    <mxGeometry x="220" width="109" height="50" as="geometry">
                        <mxRectangle width="109" height="50" as="alternateBounds"/>
                    </mxGeometry>
                </mxCell>
                <mxCell id="294" value="" style="shape=partialRectangle;html=1;whiteSpace=wrap;connectable=0;fillColor=none;top=0;left=0;bottom=0;right=0;overflow=hidden;shadow=0;fillStyle=auto;strokeColor=#F00800;" parent="290" vertex="1">
                    <mxGeometry x="329" width="111" height="50" as="geometry">
                        <mxRectangle width="111" height="50" as="alternateBounds"/>
                    </mxGeometry>
                </mxCell>
                <mxCell id="408" style="shape=tableRow;horizontal=0;startSize=0;swimlaneHead=0;swimlaneBody=0;top=0;left=0;bottom=0;right=0;collapsible=0;dropTarget=0;fillColor=none;points=[[0,0.5],[1,0.5]];portConstraint=eastwest;shadow=0;fillStyle=auto;strokeColor=#F00800;" parent="279" vertex="1">
                    <mxGeometry y="163" width="440" height="50" as="geometry"/>
                </mxCell>
                <mxCell id="409" value="id_facoltà" style="shape=partialRectangle;html=1;whiteSpace=wrap;connectable=0;top=0;left=0;bottom=0;right=0;overflow=hidden;shadow=0;fillStyle=auto;fillColor=none;" parent="408" vertex="1">
                    <mxGeometry width="109" height="50" as="geometry">
                        <mxRectangle width="109" height="50" as="alternateBounds"/>
                    </mxGeometry>
                </mxCell>
                <mxCell id="410" value="int" style="shape=partialRectangle;html=1;whiteSpace=wrap;connectable=0;top=0;left=0;bottom=0;right=0;overflow=hidden;shadow=0;fillStyle=auto;fillColor=none;" parent="408" vertex="1">
                    <mxGeometry x="109" width="111" height="50" as="geometry">
                        <mxRectangle width="111" height="50" as="alternateBounds"/>
                    </mxGeometry>
                </mxCell>
                <mxCell id="411" style="shape=partialRectangle;html=1;whiteSpace=wrap;connectable=0;fillColor=none;top=0;left=0;bottom=0;right=0;overflow=hidden;shadow=0;fillStyle=auto;strokeColor=#F00800;" parent="408" vertex="1">
                    <mxGeometry x="220" width="109" height="50" as="geometry">
                        <mxRectangle width="109" height="50" as="alternateBounds"/>
                    </mxGeometry>
                </mxCell>
                <mxCell id="412" value="FK" style="shape=partialRectangle;html=1;whiteSpace=wrap;connectable=0;fillColor=none;top=0;left=0;bottom=0;right=0;overflow=hidden;shadow=0;fillStyle=auto;strokeColor=#F00800;" parent="408" vertex="1">
                    <mxGeometry x="329" width="111" height="50" as="geometry">
                        <mxRectangle width="111" height="50" as="alternateBounds"/>
                    </mxGeometry>
                </mxCell>
                <mxCell id="295" value="corsi_insegnanri" style="shape=table;startSize=30;container=1;collapsible=0;childLayout=tableLayout;fontStyle=1;align=center;shadow=0;fillStyle=auto;strokeColor=#FFFFFF;fillColor=#FFFFFF;gradientColor=none;gradientDirection=west;fontColor=#18141D;swimlaneFillColor=default;rounded=0;swimlaneLine=1;" parent="1" vertex="1">
                    <mxGeometry x="1220" y="950" width="410" height="162.99999999999977" as="geometry"/>
                </mxCell>
                <mxCell id="296" value="" style="shape=tableRow;horizontal=0;startSize=0;swimlaneHead=0;swimlaneBody=0;top=0;left=0;bottom=0;right=0;collapsible=0;dropTarget=0;fillColor=none;points=[[0,0.5],[1,0.5]];portConstraint=eastwest;shadow=0;fillStyle=auto;strokeColor=#F00800;" parent="295" vertex="1">
                    <mxGeometry y="30" width="410" height="30" as="geometry"/>
                </mxCell>
                <mxCell id="297" value="nome" style="shape=partialRectangle;html=1;whiteSpace=wrap;connectable=0;top=0;left=0;bottom=0;right=0;overflow=hidden;shadow=0;fillStyle=auto;fillColor=none;" parent="296" vertex="1">
                    <mxGeometry width="102" height="30" as="geometry">
                        <mxRectangle width="102" height="30" as="alternateBounds"/>
                    </mxGeometry>
                </mxCell>
                <mxCell id="298" value="tpo" style="shape=partialRectangle;html=1;whiteSpace=wrap;connectable=0;top=0;left=0;bottom=0;right=0;overflow=hidden;shadow=0;fillStyle=auto;fillColor=none;" parent="296" vertex="1">
                    <mxGeometry x="102" width="103" height="30" as="geometry">
                        <mxRectangle width="103" height="30" as="alternateBounds"/>
                    </mxGeometry>
                </mxCell>
                <mxCell id="299" value="attributo" style="shape=partialRectangle;html=1;whiteSpace=wrap;connectable=0;fillColor=none;top=0;left=0;bottom=0;right=0;overflow=hidden;shadow=0;fillStyle=auto;strokeColor=#F00800;" parent="296" vertex="1">
                    <mxGeometry x="205" width="102" height="30" as="geometry">
                        <mxRectangle width="102" height="30" as="alternateBounds"/>
                    </mxGeometry>
                </mxCell>
                <mxCell id="300" value="attributo" style="shape=partialRectangle;html=1;whiteSpace=wrap;connectable=0;fillColor=none;top=0;left=0;bottom=0;right=0;overflow=hidden;shadow=0;fillStyle=auto;strokeColor=#F00800;rotation=0;" parent="296" vertex="1">
                    <mxGeometry x="307" width="103" height="30" relative="1" as="geometry">
                        <mxRectangle width="103" height="30" as="alternateBounds"/>
                    </mxGeometry>
                </mxCell>
                <mxCell id="301" value="" style="shape=tableRow;horizontal=0;startSize=0;swimlaneHead=0;swimlaneBody=0;top=0;left=0;bottom=0;right=0;collapsible=0;dropTarget=0;fillColor=none;points=[[0,0.5],[1,0.5]];portConstraint=eastwest;shadow=0;fillStyle=auto;strokeColor=#F00800;" parent="295" vertex="1">
                    <mxGeometry y="60" width="410" height="53" as="geometry"/>
                </mxCell>
                <mxCell id="302" value="id_corsi" style="shape=partialRectangle;html=1;whiteSpace=wrap;connectable=0;top=0;left=0;bottom=0;right=0;overflow=hidden;shadow=0;fillStyle=auto;fillColor=none;" parent="301" vertex="1">
                    <mxGeometry width="102" height="53" as="geometry">
                        <mxRectangle width="102" height="53" as="alternateBounds"/>
                    </mxGeometry>
                </mxCell>
                <mxCell id="303" value="int" style="shape=partialRectangle;html=1;whiteSpace=wrap;connectable=0;top=0;left=0;bottom=0;right=0;overflow=hidden;shadow=0;fillStyle=auto;fillColor=none;" parent="301" vertex="1">
                    <mxGeometry x="102" width="103" height="53" as="geometry">
                        <mxRectangle width="103" height="53" as="alternateBounds"/>
                    </mxGeometry>
                </mxCell>
                <mxCell id="304" value="" style="shape=partialRectangle;html=1;whiteSpace=wrap;connectable=0;fillColor=none;top=0;left=0;bottom=0;right=0;overflow=hidden;shadow=0;fillStyle=auto;strokeColor=#F00800;" parent="301" vertex="1">
                    <mxGeometry x="205" width="102" height="53" as="geometry">
                        <mxRectangle width="102" height="53" as="alternateBounds"/>
                    </mxGeometry>
                </mxCell>
                <mxCell id="305" value="FK" style="shape=partialRectangle;html=1;whiteSpace=wrap;connectable=0;fillColor=none;top=0;left=0;bottom=0;right=0;overflow=hidden;shadow=0;fillStyle=auto;strokeColor=#F00800;" parent="301" vertex="1">
                    <mxGeometry x="307" width="103" height="53" as="geometry">
                        <mxRectangle width="103" height="53" as="alternateBounds"/>
                    </mxGeometry>
                </mxCell>
                <mxCell id="306" value="" style="shape=tableRow;horizontal=0;startSize=0;swimlaneHead=0;swimlaneBody=0;top=0;left=0;bottom=0;right=0;collapsible=0;dropTarget=0;fillColor=none;points=[[0,0.5],[1,0.5]];portConstraint=eastwest;shadow=0;fillStyle=auto;strokeColor=#F00800;" parent="295" vertex="1">
                    <mxGeometry y="113" width="410" height="50" as="geometry"/>
                </mxCell>
                <mxCell id="307" value="id_insegnanti" style="shape=partialRectangle;html=1;whiteSpace=wrap;connectable=0;top=0;left=0;bottom=0;right=0;overflow=hidden;shadow=0;fillStyle=auto;fillColor=none;" parent="306" vertex="1">
                    <mxGeometry width="102" height="50" as="geometry">
                        <mxRectangle width="102" height="50" as="alternateBounds"/>
                    </mxGeometry>
                </mxCell>
                <mxCell id="308" value="int" style="shape=partialRectangle;html=1;whiteSpace=wrap;connectable=0;top=0;left=0;bottom=0;right=0;overflow=hidden;shadow=0;fillStyle=auto;fillColor=none;" parent="306" vertex="1">
                    <mxGeometry x="102" width="103" height="50" as="geometry">
                        <mxRectangle width="103" height="50" as="alternateBounds"/>
                    </mxGeometry>
                </mxCell>
                <mxCell id="309" value="" style="shape=partialRectangle;html=1;whiteSpace=wrap;connectable=0;fillColor=none;top=0;left=0;bottom=0;right=0;overflow=hidden;shadow=0;fillStyle=auto;strokeColor=#F00800;" parent="306" vertex="1">
                    <mxGeometry x="205" width="102" height="50" as="geometry">
                        <mxRectangle width="102" height="50" as="alternateBounds"/>
                    </mxGeometry>
                </mxCell>
                <mxCell id="310" value="FK" style="shape=partialRectangle;html=1;whiteSpace=wrap;connectable=0;fillColor=none;top=0;left=0;bottom=0;right=0;overflow=hidden;shadow=0;fillStyle=auto;strokeColor=#F00800;" parent="306" vertex="1">
                    <mxGeometry x="307" width="103" height="50" as="geometry">
                        <mxRectangle width="103" height="50" as="alternateBounds"/>
                    </mxGeometry>
                </mxCell>
                <mxCell id="311" value="insegnanti" style="shape=table;startSize=30;container=1;collapsible=0;childLayout=tableLayout;fontStyle=1;align=center;shadow=0;fillStyle=auto;strokeColor=#FFFFFF;fillColor=#FFFFFF;gradientColor=none;gradientDirection=west;fontColor=#18141D;swimlaneFillColor=default;rounded=0;swimlaneLine=1;" parent="1" vertex="1">
                    <mxGeometry x="750" y="780" width="440" height="213" as="geometry"/>
                </mxCell>
                <mxCell id="312" value="" style="shape=tableRow;horizontal=0;startSize=0;swimlaneHead=0;swimlaneBody=0;top=0;left=0;bottom=0;right=0;collapsible=0;dropTarget=0;fillColor=none;points=[[0,0.5],[1,0.5]];portConstraint=eastwest;shadow=0;fillStyle=auto;strokeColor=#F00800;" parent="311" vertex="1">
                    <mxGeometry y="30" width="440" height="30" as="geometry"/>
                </mxCell>
                <mxCell id="313" value="nome" style="shape=partialRectangle;html=1;whiteSpace=wrap;connectable=0;top=0;left=0;bottom=0;right=0;overflow=hidden;shadow=0;fillStyle=auto;fillColor=none;" parent="312" vertex="1">
                    <mxGeometry width="110" height="30" as="geometry">
                        <mxRectangle width="110" height="30" as="alternateBounds"/>
                    </mxGeometry>
                </mxCell>
                <mxCell id="314" value="tpo" style="shape=partialRectangle;html=1;whiteSpace=wrap;connectable=0;top=0;left=0;bottom=0;right=0;overflow=hidden;shadow=0;fillStyle=auto;fillColor=none;" parent="312" vertex="1">
                    <mxGeometry x="110" width="110" height="30" as="geometry">
                        <mxRectangle width="110" height="30" as="alternateBounds"/>
                    </mxGeometry>
                </mxCell>
                <mxCell id="315" value="attributo" style="shape=partialRectangle;html=1;whiteSpace=wrap;connectable=0;fillColor=none;top=0;left=0;bottom=0;right=0;overflow=hidden;shadow=0;fillStyle=auto;strokeColor=#F00800;" parent="312" vertex="1">
                    <mxGeometry x="220" width="110" height="30" as="geometry">
                        <mxRectangle width="110" height="30" as="alternateBounds"/>
                    </mxGeometry>
                </mxCell>
                <mxCell id="316" value="attributo" style="shape=partialRectangle;html=1;whiteSpace=wrap;connectable=0;fillColor=none;top=0;left=0;bottom=0;right=0;overflow=hidden;shadow=0;fillStyle=auto;strokeColor=#F00800;rotation=0;" parent="312" vertex="1">
                    <mxGeometry x="330" width="110" height="30" relative="1" as="geometry">
                        <mxRectangle width="110" height="30" as="alternateBounds"/>
                    </mxGeometry>
                </mxCell>
                <mxCell id="317" value="" style="shape=tableRow;horizontal=0;startSize=0;swimlaneHead=0;swimlaneBody=0;top=0;left=0;bottom=0;right=0;collapsible=0;dropTarget=0;fillColor=none;points=[[0,0.5],[1,0.5]];portConstraint=eastwest;shadow=0;fillStyle=auto;strokeColor=#F00800;" parent="311" vertex="1">
                    <mxGeometry y="60" width="440" height="53" as="geometry"/>
                </mxCell>
                <mxCell id="318" value="id_insegnanti" style="shape=partialRectangle;html=1;whiteSpace=wrap;connectable=0;top=0;left=0;bottom=0;right=0;overflow=hidden;shadow=0;fillStyle=auto;fillColor=none;" parent="317" vertex="1">
                    <mxGeometry width="110" height="53" as="geometry">
                        <mxRectangle width="110" height="53" as="alternateBounds"/>
                    </mxGeometry>
                </mxCell>
                <mxCell id="319" value="int" style="shape=partialRectangle;html=1;whiteSpace=wrap;connectable=0;top=0;left=0;bottom=0;right=0;overflow=hidden;shadow=0;fillStyle=auto;fillColor=none;" parent="317" vertex="1">
                    <mxGeometry x="110" width="110" height="53" as="geometry">
                        <mxRectangle width="110" height="53" as="alternateBounds"/>
                    </mxGeometry>
                </mxCell>
                <mxCell id="320" value="AUTO_INCREMENT" style="shape=partialRectangle;html=1;whiteSpace=wrap;connectable=0;fillColor=none;top=0;left=0;bottom=0;right=0;overflow=hidden;shadow=0;fillStyle=auto;strokeColor=#F00800;" parent="317" vertex="1">
                    <mxGeometry x="220" width="110" height="53" as="geometry">
                        <mxRectangle width="110" height="53" as="alternateBounds"/>
                    </mxGeometry>
                </mxCell>
                <mxCell id="321" value="&lt;span style=&quot;color: rgb(255, 255, 255); font-size: 10px;&quot;&gt;primary key&lt;/span&gt;" style="shape=partialRectangle;html=1;whiteSpace=wrap;connectable=0;fillColor=none;top=0;left=0;bottom=0;right=0;overflow=hidden;shadow=0;fillStyle=auto;strokeColor=#F00800;" parent="317" vertex="1">
                    <mxGeometry x="330" width="110" height="53" as="geometry">
                        <mxRectangle width="110" height="53" as="alternateBounds"/>
                    </mxGeometry>
                </mxCell>
                <mxCell id="322" value="" style="shape=tableRow;horizontal=0;startSize=0;swimlaneHead=0;swimlaneBody=0;top=0;left=0;bottom=0;right=0;collapsible=0;dropTarget=0;fillColor=none;points=[[0,0.5],[1,0.5]];portConstraint=eastwest;shadow=0;fillStyle=auto;strokeColor=#F00800;" parent="311" vertex="1">
                    <mxGeometry y="113" width="440" height="50" as="geometry"/>
                </mxCell>
                <mxCell id="323" value="nome_insegnanti" style="shape=partialRectangle;html=1;whiteSpace=wrap;connectable=0;top=0;left=0;bottom=0;right=0;overflow=hidden;shadow=0;fillStyle=auto;fillColor=none;" parent="322" vertex="1">
                    <mxGeometry width="110" height="50" as="geometry">
                        <mxRectangle width="110" height="50" as="alternateBounds"/>
                    </mxGeometry>
                </mxCell>
                <mxCell id="324" value="&lt;span style=&quot;color: rgb(255, 255, 255); font-size: 10px;&quot;&gt;varchar(100)&lt;/span&gt;" style="shape=partialRectangle;html=1;whiteSpace=wrap;connectable=0;top=0;left=0;bottom=0;right=0;overflow=hidden;shadow=0;fillStyle=auto;fillColor=none;" parent="322" vertex="1">
                    <mxGeometry x="110" width="110" height="50" as="geometry">
                        <mxRectangle width="110" height="50" as="alternateBounds"/>
                    </mxGeometry>
                </mxCell>
                <mxCell id="325" value="not_null" style="shape=partialRectangle;html=1;whiteSpace=wrap;connectable=0;fillColor=none;top=0;left=0;bottom=0;right=0;overflow=hidden;shadow=0;fillStyle=auto;strokeColor=#F00800;" parent="322" vertex="1">
                    <mxGeometry x="220" width="110" height="50" as="geometry">
                        <mxRectangle width="110" height="50" as="alternateBounds"/>
                    </mxGeometry>
                </mxCell>
                <mxCell id="326" value="" style="shape=partialRectangle;html=1;whiteSpace=wrap;connectable=0;fillColor=none;top=0;left=0;bottom=0;right=0;overflow=hidden;shadow=0;fillStyle=auto;strokeColor=#F00800;" parent="322" vertex="1">
                    <mxGeometry x="330" width="110" height="50" as="geometry">
                        <mxRectangle width="110" height="50" as="alternateBounds"/>
                    </mxGeometry>
                </mxCell>
                <mxCell id="413" style="shape=tableRow;horizontal=0;startSize=0;swimlaneHead=0;swimlaneBody=0;top=0;left=0;bottom=0;right=0;collapsible=0;dropTarget=0;fillColor=none;points=[[0,0.5],[1,0.5]];portConstraint=eastwest;shadow=0;fillStyle=auto;strokeColor=#F00800;" parent="311" vertex="1">
                    <mxGeometry y="163" width="440" height="50" as="geometry"/>
                </mxCell>
                <mxCell id="414" value="id_facoltà" style="shape=partialRectangle;html=1;whiteSpace=wrap;connectable=0;top=0;left=0;bottom=0;right=0;overflow=hidden;shadow=0;fillStyle=auto;fillColor=none;" parent="413" vertex="1">
                    <mxGeometry width="110" height="50" as="geometry">
                        <mxRectangle width="110" height="50" as="alternateBounds"/>
                    </mxGeometry>
                </mxCell>
                <mxCell id="415" value="int" style="shape=partialRectangle;html=1;whiteSpace=wrap;connectable=0;top=0;left=0;bottom=0;right=0;overflow=hidden;shadow=0;fillStyle=auto;fillColor=none;" parent="413" vertex="1">
                    <mxGeometry x="110" width="110" height="50" as="geometry">
                        <mxRectangle width="110" height="50" as="alternateBounds"/>
                    </mxGeometry>
                </mxCell>
                <mxCell id="416" style="shape=partialRectangle;html=1;whiteSpace=wrap;connectable=0;fillColor=none;top=0;left=0;bottom=0;right=0;overflow=hidden;shadow=0;fillStyle=auto;strokeColor=#F00800;" parent="413" vertex="1">
                    <mxGeometry x="220" width="110" height="50" as="geometry">
                        <mxRectangle width="110" height="50" as="alternateBounds"/>
                    </mxGeometry>
                </mxCell>
                <mxCell id="417" value="FK" style="shape=partialRectangle;html=1;whiteSpace=wrap;connectable=0;fillColor=none;top=0;left=0;bottom=0;right=0;overflow=hidden;shadow=0;fillStyle=auto;strokeColor=#F00800;" parent="413" vertex="1">
                    <mxGeometry x="330" width="110" height="50" as="geometry">
                        <mxRectangle width="110" height="50" as="alternateBounds"/>
                    </mxGeometry>
                </mxCell>
                <mxCell id="327" value="facoltà" style="shape=table;startSize=30;container=1;collapsible=0;childLayout=tableLayout;fontStyle=1;align=center;shadow=0;fillStyle=auto;strokeColor=#FFFFFF;fillColor=#FFFFFF;gradientColor=none;gradientDirection=west;fontColor=#18141D;swimlaneFillColor=default;rounded=0;swimlaneLine=1;" parent="1" vertex="1">
                    <mxGeometry x="750" y="1280" width="440" height="213" as="geometry"/>
                </mxCell>
                <mxCell id="328" value="" style="shape=tableRow;horizontal=0;startSize=0;swimlaneHead=0;swimlaneBody=0;top=0;left=0;bottom=0;right=0;collapsible=0;dropTarget=0;fillColor=none;points=[[0,0.5],[1,0.5]];portConstraint=eastwest;shadow=0;fillStyle=auto;strokeColor=#F00800;" parent="327" vertex="1">
                    <mxGeometry y="30" width="440" height="30" as="geometry"/>
                </mxCell>
                <mxCell id="329" value="nome" style="shape=partialRectangle;html=1;whiteSpace=wrap;connectable=0;top=0;left=0;bottom=0;right=0;overflow=hidden;shadow=0;fillStyle=auto;fillColor=none;" parent="328" vertex="1">
                    <mxGeometry width="109" height="30" as="geometry">
                        <mxRectangle width="109" height="30" as="alternateBounds"/>
                    </mxGeometry>
                </mxCell>
                <mxCell id="330" value="tpo" style="shape=partialRectangle;html=1;whiteSpace=wrap;connectable=0;top=0;left=0;bottom=0;right=0;overflow=hidden;shadow=0;fillStyle=auto;fillColor=none;" parent="328" vertex="1">
                    <mxGeometry x="109" width="111" height="30" as="geometry">
                        <mxRectangle width="111" height="30" as="alternateBounds"/>
                    </mxGeometry>
                </mxCell>
                <mxCell id="331" value="attributo" style="shape=partialRectangle;html=1;whiteSpace=wrap;connectable=0;fillColor=none;top=0;left=0;bottom=0;right=0;overflow=hidden;shadow=0;fillStyle=auto;strokeColor=#F00800;" parent="328" vertex="1">
                    <mxGeometry x="220" width="109" height="30" as="geometry">
                        <mxRectangle width="109" height="30" as="alternateBounds"/>
                    </mxGeometry>
                </mxCell>
                <mxCell id="332" value="attributo" style="shape=partialRectangle;html=1;whiteSpace=wrap;connectable=0;fillColor=none;top=0;left=0;bottom=0;right=0;overflow=hidden;shadow=0;fillStyle=auto;strokeColor=#F00800;rotation=0;" parent="328" vertex="1">
                    <mxGeometry x="329" width="111" height="30" relative="1" as="geometry">
                        <mxRectangle width="111" height="30" as="alternateBounds"/>
                    </mxGeometry>
                </mxCell>
                <mxCell id="333" value="" style="shape=tableRow;horizontal=0;startSize=0;swimlaneHead=0;swimlaneBody=0;top=0;left=0;bottom=0;right=0;collapsible=0;dropTarget=0;fillColor=none;points=[[0,0.5],[1,0.5]];portConstraint=eastwest;shadow=0;fillStyle=auto;strokeColor=#F00800;" parent="327" vertex="1">
                    <mxGeometry y="60" width="440" height="53" as="geometry"/>
                </mxCell>
                <mxCell id="334" value="id_facolta" style="shape=partialRectangle;html=1;whiteSpace=wrap;connectable=0;top=0;left=0;bottom=0;right=0;overflow=hidden;shadow=0;fillStyle=auto;fillColor=none;" parent="333" vertex="1">
                    <mxGeometry width="109" height="53" as="geometry">
                        <mxRectangle width="109" height="53" as="alternateBounds"/>
                    </mxGeometry>
                </mxCell>
                <mxCell id="335" value="int" style="shape=partialRectangle;html=1;whiteSpace=wrap;connectable=0;top=0;left=0;bottom=0;right=0;overflow=hidden;shadow=0;fillStyle=auto;fillColor=none;" parent="333" vertex="1">
                    <mxGeometry x="109" width="111" height="53" as="geometry">
                        <mxRectangle width="111" height="53" as="alternateBounds"/>
                    </mxGeometry>
                </mxCell>
                <mxCell id="336" value="AUTO_INCREMENT" style="shape=partialRectangle;html=1;whiteSpace=wrap;connectable=0;fillColor=none;top=0;left=0;bottom=0;right=0;overflow=hidden;shadow=0;fillStyle=auto;strokeColor=#F00800;" parent="333" vertex="1">
                    <mxGeometry x="220" width="109" height="53" as="geometry">
                        <mxRectangle width="109" height="53" as="alternateBounds"/>
                    </mxGeometry>
                </mxCell>
                <mxCell id="337" value="&lt;span style=&quot;color: rgb(255, 255, 255); font-size: 10px;&quot;&gt;primary key&lt;/span&gt;" style="shape=partialRectangle;html=1;whiteSpace=wrap;connectable=0;fillColor=none;top=0;left=0;bottom=0;right=0;overflow=hidden;shadow=0;fillStyle=auto;strokeColor=#F00800;" parent="333" vertex="1">
                    <mxGeometry x="329" width="111" height="53" as="geometry">
                        <mxRectangle width="111" height="53" as="alternateBounds"/>
                    </mxGeometry>
                </mxCell>
                <mxCell id="338" value="" style="shape=tableRow;horizontal=0;startSize=0;swimlaneHead=0;swimlaneBody=0;top=0;left=0;bottom=0;right=0;collapsible=0;dropTarget=0;fillColor=none;points=[[0,0.5],[1,0.5]];portConstraint=eastwest;shadow=0;fillStyle=auto;strokeColor=#F00800;" parent="327" vertex="1">
                    <mxGeometry y="113" width="440" height="50" as="geometry"/>
                </mxCell>
                <mxCell id="339" value="nome_facoltà" style="shape=partialRectangle;html=1;whiteSpace=wrap;connectable=0;top=0;left=0;bottom=0;right=0;overflow=hidden;shadow=0;fillStyle=auto;fillColor=none;" parent="338" vertex="1">
                    <mxGeometry width="109" height="50" as="geometry">
                        <mxRectangle width="109" height="50" as="alternateBounds"/>
                    </mxGeometry>
                </mxCell>
                <mxCell id="340" value="&lt;span style=&quot;color: rgb(255, 255, 255); font-size: 10px;&quot;&gt;varchar(100)&lt;/span&gt;" style="shape=partialRectangle;html=1;whiteSpace=wrap;connectable=0;top=0;left=0;bottom=0;right=0;overflow=hidden;shadow=0;fillStyle=auto;fillColor=none;" parent="338" vertex="1">
                    <mxGeometry x="109" width="111" height="50" as="geometry">
                        <mxRectangle width="111" height="50" as="alternateBounds"/>
                    </mxGeometry>
                </mxCell>
                <mxCell id="341" value="not_null" style="shape=partialRectangle;html=1;whiteSpace=wrap;connectable=0;fillColor=none;top=0;left=0;bottom=0;right=0;overflow=hidden;shadow=0;fillStyle=auto;strokeColor=#F00800;" parent="338" vertex="1">
                    <mxGeometry x="220" width="109" height="50" as="geometry">
                        <mxRectangle width="109" height="50" as="alternateBounds"/>
                    </mxGeometry>
                </mxCell>
                <mxCell id="342" value="" style="shape=partialRectangle;html=1;whiteSpace=wrap;connectable=0;fillColor=none;top=0;left=0;bottom=0;right=0;overflow=hidden;shadow=0;fillStyle=auto;strokeColor=#F00800;" parent="338" vertex="1">
                    <mxGeometry x="329" width="111" height="50" as="geometry">
                        <mxRectangle width="111" height="50" as="alternateBounds"/>
                    </mxGeometry>
                </mxCell>
                <mxCell id="398" style="shape=tableRow;horizontal=0;startSize=0;swimlaneHead=0;swimlaneBody=0;top=0;left=0;bottom=0;right=0;collapsible=0;dropTarget=0;fillColor=none;points=[[0,0.5],[1,0.5]];portConstraint=eastwest;shadow=0;fillStyle=auto;strokeColor=#F00800;" parent="327" vertex="1">
                    <mxGeometry y="163" width="440" height="50" as="geometry"/>
                </mxCell>
                <mxCell id="399" value="id_dipartimento" style="shape=partialRectangle;html=1;whiteSpace=wrap;connectable=0;top=0;left=0;bottom=0;right=0;overflow=hidden;shadow=0;fillStyle=auto;fillColor=none;" parent="398" vertex="1">
                    <mxGeometry width="109" height="50" as="geometry">
                        <mxRectangle width="109" height="50" as="alternateBounds"/>
                    </mxGeometry>
                </mxCell>
                <mxCell id="400" value="int" style="shape=partialRectangle;html=1;whiteSpace=wrap;connectable=0;top=0;left=0;bottom=0;right=0;overflow=hidden;shadow=0;fillStyle=auto;fillColor=none;" parent="398" vertex="1">
                    <mxGeometry x="109" width="111" height="50" as="geometry">
                        <mxRectangle width="111" height="50" as="alternateBounds"/>
                    </mxGeometry>
                </mxCell>
                <mxCell id="401" style="shape=partialRectangle;html=1;whiteSpace=wrap;connectable=0;fillColor=none;top=0;left=0;bottom=0;right=0;overflow=hidden;shadow=0;fillStyle=auto;strokeColor=#F00800;" parent="398" vertex="1">
                    <mxGeometry x="220" width="109" height="50" as="geometry">
                        <mxRectangle width="109" height="50" as="alternateBounds"/>
                    </mxGeometry>
                </mxCell>
                <mxCell id="402" value="FK" style="shape=partialRectangle;html=1;whiteSpace=wrap;connectable=0;fillColor=none;top=0;left=0;bottom=0;right=0;overflow=hidden;shadow=0;fillStyle=auto;strokeColor=#F00800;" parent="398" vertex="1">
                    <mxGeometry x="329" width="111" height="50" as="geometry">
                        <mxRectangle width="111" height="50" as="alternateBounds"/>
                    </mxGeometry>
                </mxCell>
                <mxCell id="459" style="edgeStyle=none;html=1;entryX=0.004;entryY=0.722;entryDx=0;entryDy=0;entryPerimeter=0;" edge="1" parent="1" source="433" target="451">
                    <mxGeometry relative="1" as="geometry"/>
                </mxCell>
                <mxCell id="433" value="Corsi" style="shape=table;startSize=30;container=1;collapsible=1;childLayout=tableLayout;fixedRows=1;rowLines=0;fontStyle=1;align=center;resizeLast=1;labelBackgroundColor=none;labelBorderColor=none;fillColor=none;fontColor=#FFFFFF;strokeColor=#FFFFFF;swimlaneFillColor=#000000;strokeWidth=1;movable=1;resizable=1;rotatable=1;deletable=1;editable=1;connectable=1;" vertex="1" parent="1">
                    <mxGeometry x="1950" y="640" width="132" height="120" as="geometry"/>
                </mxCell>
                <mxCell id="434" value="" style="shape=tableRow;horizontal=0;startSize=0;swimlaneHead=0;swimlaneBody=0;fillColor=none;collapsible=0;dropTarget=0;points=[[0,0.5],[1,0.5]];portConstraint=eastwest;top=0;left=0;right=0;bottom=1;" vertex="1" parent="433">
                    <mxGeometry y="30" width="132" height="30" as="geometry"/>
                </mxCell>
                <mxCell id="435" value="PK" style="shape=partialRectangle;connectable=0;fillColor=none;top=0;left=0;bottom=0;right=0;fontStyle=1;overflow=hidden;fontColor=#FFFFFF;" vertex="1" parent="434">
                    <mxGeometry width="30" height="30" as="geometry">
                        <mxRectangle width="30" height="30" as="alternateBounds"/>
                    </mxGeometry>
                </mxCell>
                <mxCell id="436" value="id_corso" style="shape=partialRectangle;connectable=0;fillColor=none;top=0;left=0;bottom=0;right=0;align=left;spacingLeft=6;fontStyle=1;overflow=hidden;fontColor=#FFFFFF;strokeColor=#FFFFFF;" vertex="1" parent="434">
                    <mxGeometry x="30" width="102" height="30" as="geometry">
                        <mxRectangle width="102" height="30" as="alternateBounds"/>
                    </mxGeometry>
                </mxCell>
                <mxCell id="437" value="" style="shape=tableRow;horizontal=0;startSize=0;swimlaneHead=0;swimlaneBody=0;fillColor=none;collapsible=0;dropTarget=0;points=[[0,0.5],[1,0.5]];portConstraint=eastwest;top=0;left=0;right=0;bottom=0;" vertex="1" parent="433">
                    <mxGeometry y="60" width="132" height="30" as="geometry"/>
                </mxCell>
                <mxCell id="438" value="" style="shape=partialRectangle;connectable=0;fillColor=none;top=0;left=0;bottom=0;right=0;editable=1;overflow=hidden;fontColor=#FFFFFF;" vertex="1" parent="437">
                    <mxGeometry width="30" height="30" as="geometry">
                        <mxRectangle width="30" height="30" as="alternateBounds"/>
                    </mxGeometry>
                </mxCell>
                <mxCell id="439" value="nome_corso" style="shape=partialRectangle;connectable=0;fillColor=none;top=0;left=0;bottom=0;right=0;align=left;spacingLeft=6;overflow=hidden;fontColor=#FFFFFF;" vertex="1" parent="437">
                    <mxGeometry x="30" width="102" height="30" as="geometry">
                        <mxRectangle width="102" height="30" as="alternateBounds"/>
                    </mxGeometry>
                </mxCell>
                <mxCell id="440" value="" style="shape=tableRow;horizontal=0;startSize=0;swimlaneHead=0;swimlaneBody=0;fillColor=none;collapsible=0;dropTarget=0;points=[[0,0.5],[1,0.5]];portConstraint=eastwest;top=0;left=0;right=0;bottom=0;" vertex="1" parent="433">
                    <mxGeometry y="90" width="132" height="30" as="geometry"/>
                </mxCell>
                <mxCell id="441" value="FK" style="shape=partialRectangle;connectable=0;fillColor=none;top=0;left=0;bottom=0;right=0;editable=1;overflow=hidden;fontColor=#FFFFFF;" vertex="1" parent="440">
                    <mxGeometry width="30" height="30" as="geometry">
                        <mxRectangle width="30" height="30" as="alternateBounds"/>
                    </mxGeometry>
                </mxCell>
                <mxCell id="442" value="id_facoltà" style="shape=partialRectangle;connectable=0;fillColor=none;top=0;left=0;bottom=0;right=0;align=left;spacingLeft=6;overflow=hidden;fontColor=#FFFFFF;" vertex="1" parent="440">
                    <mxGeometry x="30" width="102" height="30" as="geometry">
                        <mxRectangle width="102" height="30" as="alternateBounds"/>
                    </mxGeometry>
                </mxCell>
                <mxCell id="443" value="Insegnanti" style="shape=table;startSize=30;container=1;collapsible=1;childLayout=tableLayout;fixedRows=1;rowLines=0;fontStyle=1;align=center;resizeLast=1;labelBackgroundColor=none;labelBorderColor=none;fillColor=none;fontColor=#FFFFFF;strokeColor=#FFFFFF;swimlaneFillColor=#000000;strokeWidth=1;" vertex="1" parent="1">
                    <mxGeometry x="2360" y="640" width="139" height="90" as="geometry">
                        <mxRectangle x="252" y="223" width="95" height="30" as="alternateBounds"/>
                    </mxGeometry>
                </mxCell>
                <mxCell id="444" value="" style="shape=tableRow;horizontal=0;startSize=0;swimlaneHead=0;swimlaneBody=0;fillColor=none;collapsible=0;dropTarget=0;points=[[0,0.5],[1,0.5]];portConstraint=eastwest;top=0;left=0;right=0;bottom=1;" vertex="1" parent="443">
                    <mxGeometry y="30" width="139" height="30" as="geometry"/>
                </mxCell>
                <mxCell id="445" value="PK" style="shape=partialRectangle;connectable=0;fillColor=none;top=0;left=0;bottom=0;right=0;fontStyle=1;overflow=hidden;fontColor=#FFFFFF;" vertex="1" parent="444">
                    <mxGeometry width="30" height="30" as="geometry">
                        <mxRectangle width="30" height="30" as="alternateBounds"/>
                    </mxGeometry>
                </mxCell>
                <mxCell id="446" value="id_insegnante" style="shape=partialRectangle;connectable=0;fillColor=none;top=0;left=0;bottom=0;right=0;align=left;spacingLeft=6;fontStyle=1;overflow=hidden;fontColor=#FFFFFF;strokeColor=#FFFFFF;" vertex="1" parent="444">
                    <mxGeometry x="30" width="109" height="30" as="geometry">
                        <mxRectangle width="109" height="30" as="alternateBounds"/>
                    </mxGeometry>
                </mxCell>
                <mxCell id="447" value="" style="shape=tableRow;horizontal=0;startSize=0;swimlaneHead=0;swimlaneBody=0;fillColor=none;collapsible=0;dropTarget=0;points=[[0,0.5],[1,0.5]];portConstraint=eastwest;top=0;left=0;right=0;bottom=0;" vertex="1" parent="443">
                    <mxGeometry y="60" width="139" height="30" as="geometry"/>
                </mxCell>
                <mxCell id="448" value="" style="shape=partialRectangle;connectable=0;fillColor=none;top=0;left=0;bottom=0;right=0;editable=1;overflow=hidden;fontColor=#FFFFFF;" vertex="1" parent="447">
                    <mxGeometry width="30" height="30" as="geometry">
                        <mxRectangle width="30" height="30" as="alternateBounds"/>
                    </mxGeometry>
                </mxCell>
                <mxCell id="449" value="nome_insegnante" style="shape=partialRectangle;connectable=0;fillColor=none;top=0;left=0;bottom=0;right=0;align=left;spacingLeft=6;overflow=hidden;fontColor=#FFFFFF;" vertex="1" parent="447">
                    <mxGeometry x="30" width="109" height="30" as="geometry">
                        <mxRectangle width="109" height="30" as="alternateBounds"/>
                    </mxGeometry>
                </mxCell>
                <mxCell id="458" style="edgeStyle=none;html=1;" edge="1" parent="1" source="450" target="443">
                    <mxGeometry relative="1" as="geometry"/>
                </mxCell>
                <mxCell id="450" value="corsi Insegnanti" style="shape=table;startSize=30;container=1;collapsible=1;childLayout=tableLayout;fixedRows=1;rowLines=0;fontStyle=1;align=center;resizeLast=1;labelBackgroundColor=none;labelBorderColor=none;fillColor=none;fontColor=#FFFFFF;strokeColor=#FFFFFF;swimlaneFillColor=#000000;strokeWidth=1;" vertex="1" parent="1">
                    <mxGeometry x="2160" y="640" width="139" height="90" as="geometry">
                        <mxRectangle x="252" y="223" width="95" height="30" as="alternateBounds"/>
                    </mxGeometry>
                </mxCell>
                <mxCell id="451" value="" style="shape=tableRow;horizontal=0;startSize=0;swimlaneHead=0;swimlaneBody=0;fillColor=none;collapsible=0;dropTarget=0;points=[[0,0.5],[1,0.5]];portConstraint=eastwest;top=0;left=0;right=0;bottom=1;" vertex="1" parent="450">
                    <mxGeometry y="30" width="139" height="30" as="geometry"/>
                </mxCell>
                <mxCell id="452" value="FK" style="shape=partialRectangle;connectable=0;fillColor=none;top=0;left=0;bottom=0;right=0;fontStyle=1;overflow=hidden;fontColor=#FFFFFF;" vertex="1" parent="451">
                    <mxGeometry width="30" height="30" as="geometry">
                        <mxRectangle width="30" height="30" as="alternateBounds"/>
                    </mxGeometry>
                </mxCell>
                <mxCell id="453" value="id_insegnante" style="shape=partialRectangle;connectable=0;fillColor=none;top=0;left=0;bottom=0;right=0;align=left;spacingLeft=6;fontStyle=1;overflow=hidden;fontColor=#FFFFFF;strokeColor=#FFFFFF;" vertex="1" parent="451">
                    <mxGeometry x="30" width="109" height="30" as="geometry">
                        <mxRectangle width="109" height="30" as="alternateBounds"/>
                    </mxGeometry>
                </mxCell>
                <mxCell id="454" value="" style="shape=tableRow;horizontal=0;startSize=0;swimlaneHead=0;swimlaneBody=0;fillColor=none;collapsible=0;dropTarget=0;points=[[0,0.5],[1,0.5]];portConstraint=eastwest;top=0;left=0;right=0;bottom=0;" vertex="1" parent="450">
                    <mxGeometry y="60" width="139" height="30" as="geometry"/>
                </mxCell>
                <mxCell id="455" value="FK" style="shape=partialRectangle;connectable=0;fillColor=none;top=0;left=0;bottom=0;right=0;editable=1;overflow=hidden;fontColor=#FFFFFF;" vertex="1" parent="454">
                    <mxGeometry width="30" height="30" as="geometry">
                        <mxRectangle width="30" height="30" as="alternateBounds"/>
                    </mxGeometry>
                </mxCell>
                <mxCell id="456" value="id_corsi" style="shape=partialRectangle;connectable=0;fillColor=none;top=0;left=0;bottom=0;right=0;align=left;spacingLeft=6;overflow=hidden;fontColor=#FFFFFF;" vertex="1" parent="454">
                    <mxGeometry x="30" width="109" height="30" as="geometry">
                        <mxRectangle width="109" height="30" as="alternateBounds"/>
                    </mxGeometry>
                </mxCell>
                <mxCell id="470" style="edgeStyle=none;html=1;" edge="1" parent="1" source="460" target="433">
                    <mxGeometry relative="1" as="geometry"/>
                </mxCell>
                <mxCell id="460" value="Facoltà" style="shape=table;startSize=30;container=1;collapsible=1;childLayout=tableLayout;fixedRows=1;rowLines=0;fontStyle=1;align=center;resizeLast=1;labelBackgroundColor=none;labelBorderColor=none;fillColor=none;fontColor=#FFFFFF;strokeColor=#FFFFFF;swimlaneFillColor=#000000;strokeWidth=1;" vertex="1" parent="1">
                    <mxGeometry x="1943.5" y="453" width="145" height="120" as="geometry"/>
                </mxCell>
                <mxCell id="461" value="" style="shape=tableRow;horizontal=0;startSize=0;swimlaneHead=0;swimlaneBody=0;fillColor=none;collapsible=0;dropTarget=0;points=[[0,0.5],[1,0.5]];portConstraint=eastwest;top=0;left=0;right=0;bottom=1;" vertex="1" parent="460">
                    <mxGeometry y="30" width="145" height="30" as="geometry"/>
                </mxCell>
                <mxCell id="462" value="PK" style="shape=partialRectangle;connectable=0;fillColor=none;top=0;left=0;bottom=0;right=0;fontStyle=1;overflow=hidden;fontColor=#FFFFFF;" vertex="1" parent="461">
                    <mxGeometry width="30" height="30" as="geometry">
                        <mxRectangle width="30" height="30" as="alternateBounds"/>
                    </mxGeometry>
                </mxCell>
                <mxCell id="463" value="id_facoltà" style="shape=partialRectangle;connectable=0;fillColor=none;top=0;left=0;bottom=0;right=0;align=left;spacingLeft=6;fontStyle=1;overflow=hidden;fontColor=#FFFFFF;strokeColor=#FFFFFF;" vertex="1" parent="461">
                    <mxGeometry x="30" width="115" height="30" as="geometry">
                        <mxRectangle width="115" height="30" as="alternateBounds"/>
                    </mxGeometry>
                </mxCell>
                <mxCell id="464" value="" style="shape=tableRow;horizontal=0;startSize=0;swimlaneHead=0;swimlaneBody=0;fillColor=none;collapsible=0;dropTarget=0;points=[[0,0.5],[1,0.5]];portConstraint=eastwest;top=0;left=0;right=0;bottom=0;" vertex="1" parent="460">
                    <mxGeometry y="60" width="145" height="30" as="geometry"/>
                </mxCell>
                <mxCell id="465" value="" style="shape=partialRectangle;connectable=0;fillColor=none;top=0;left=0;bottom=0;right=0;editable=1;overflow=hidden;fontColor=#FFFFFF;" vertex="1" parent="464">
                    <mxGeometry width="30" height="30" as="geometry">
                        <mxRectangle width="30" height="30" as="alternateBounds"/>
                    </mxGeometry>
                </mxCell>
                <mxCell id="466" value="nome_facoltà" style="shape=partialRectangle;connectable=0;fillColor=none;top=0;left=0;bottom=0;right=0;align=left;spacingLeft=6;overflow=hidden;fontColor=#FFFFFF;" vertex="1" parent="464">
                    <mxGeometry x="30" width="115" height="30" as="geometry">
                        <mxRectangle width="115" height="30" as="alternateBounds"/>
                    </mxGeometry>
                </mxCell>
                <mxCell id="467" value="" style="shape=tableRow;horizontal=0;startSize=0;swimlaneHead=0;swimlaneBody=0;fillColor=none;collapsible=0;dropTarget=0;points=[[0,0.5],[1,0.5]];portConstraint=eastwest;top=0;left=0;right=0;bottom=0;" vertex="1" parent="460">
                    <mxGeometry y="90" width="145" height="30" as="geometry"/>
                </mxCell>
                <mxCell id="468" value="FK" style="shape=partialRectangle;connectable=0;fillColor=none;top=0;left=0;bottom=0;right=0;editable=1;overflow=hidden;fontColor=#FFFFFF;" vertex="1" parent="467">
                    <mxGeometry width="30" height="30" as="geometry">
                        <mxRectangle width="30" height="30" as="alternateBounds"/>
                    </mxGeometry>
                </mxCell>
                <mxCell id="469" value="id_dipartimento" style="shape=partialRectangle;connectable=0;fillColor=none;top=0;left=0;bottom=0;right=0;align=left;spacingLeft=6;overflow=hidden;fontColor=#FFFFFF;" vertex="1" parent="467">
                    <mxGeometry x="30" width="115" height="30" as="geometry">
                        <mxRectangle width="115" height="30" as="alternateBounds"/>
                    </mxGeometry>
                </mxCell>
                <mxCell id="478" style="edgeStyle=none;html=1;entryX=0.5;entryY=0;entryDx=0;entryDy=0;" edge="1" parent="1" source="471" target="460">
                    <mxGeometry relative="1" as="geometry"/>
                </mxCell>
                <mxCell id="471" value="Dipartimenti" style="shape=table;startSize=30;container=1;collapsible=1;childLayout=tableLayout;fixedRows=1;rowLines=0;fontStyle=1;align=center;resizeLast=1;labelBackgroundColor=none;labelBorderColor=none;fillColor=none;fontColor=#FFFFFF;strokeColor=#FFFFFF;swimlaneFillColor=#000000;strokeWidth=1;" vertex="1" parent="1">
                    <mxGeometry x="1942.5" y="280" width="147" height="90" as="geometry"/>
                </mxCell>
                <mxCell id="472" value="" style="shape=tableRow;horizontal=0;startSize=0;swimlaneHead=0;swimlaneBody=0;fillColor=none;collapsible=0;dropTarget=0;points=[[0,0.5],[1,0.5]];portConstraint=eastwest;top=0;left=0;right=0;bottom=1;" vertex="1" parent="471">
                    <mxGeometry y="30" width="147" height="30" as="geometry"/>
                </mxCell>
                <mxCell id="473" value="PK" style="shape=partialRectangle;connectable=0;fillColor=none;top=0;left=0;bottom=0;right=0;fontStyle=1;overflow=hidden;fontColor=#FFFFFF;" vertex="1" parent="472">
                    <mxGeometry width="30" height="30" as="geometry">
                        <mxRectangle width="30" height="30" as="alternateBounds"/>
                    </mxGeometry>
                </mxCell>
                <mxCell id="474" value="id_dipartimento" style="shape=partialRectangle;connectable=0;fillColor=none;top=0;left=0;bottom=0;right=0;align=left;spacingLeft=6;fontStyle=1;overflow=hidden;fontColor=#FFFFFF;strokeColor=#FFFFFF;" vertex="1" parent="472">
                    <mxGeometry x="30" width="117" height="30" as="geometry">
                        <mxRectangle width="117" height="30" as="alternateBounds"/>
                    </mxGeometry>
                </mxCell>
                <mxCell id="475" value="" style="shape=tableRow;horizontal=0;startSize=0;swimlaneHead=0;swimlaneBody=0;fillColor=none;collapsible=0;dropTarget=0;points=[[0,0.5],[1,0.5]];portConstraint=eastwest;top=0;left=0;right=0;bottom=0;" vertex="1" parent="471">
                    <mxGeometry y="60" width="147" height="30" as="geometry"/>
                </mxCell>
                <mxCell id="476" value="" style="shape=partialRectangle;connectable=0;fillColor=none;top=0;left=0;bottom=0;right=0;editable=1;overflow=hidden;fontColor=#FFFFFF;" vertex="1" parent="475">
                    <mxGeometry width="30" height="30" as="geometry">
                        <mxRectangle width="30" height="30" as="alternateBounds"/>
                    </mxGeometry>
                </mxCell>
                <mxCell id="477" value="nome_dipartimento" style="shape=partialRectangle;connectable=0;fillColor=none;top=0;left=0;bottom=0;right=0;align=left;spacingLeft=6;overflow=hidden;fontColor=#FFFFFF;" vertex="1" parent="475">
                    <mxGeometry x="30" width="117" height="30" as="geometry">
                        <mxRectangle width="117" height="30" as="alternateBounds"/>
                    </mxGeometry>
                </mxCell>
                <mxCell id="489" style="edgeStyle=none;html=1;entryX=0.067;entryY=0.034;entryDx=0;entryDy=0;entryPerimeter=0;" edge="1" parent="1" source="479" target="464">
                    <mxGeometry relative="1" as="geometry"/>
                </mxCell>
                <mxCell id="517" style="edgeStyle=none;html=1;" edge="1" parent="1" source="479" target="491">
                    <mxGeometry relative="1" as="geometry"/>
                </mxCell>
                <mxCell id="479" value="Studenti" style="shape=table;startSize=30;container=1;collapsible=1;childLayout=tableLayout;fixedRows=1;rowLines=0;fontStyle=1;align=center;resizeLast=1;labelBackgroundColor=none;labelBorderColor=none;fillColor=none;fontColor=#FFFFFF;strokeColor=#FFFFFF;swimlaneFillColor=#000000;strokeWidth=1;" vertex="1" parent="1">
                    <mxGeometry x="1710" y="452" width="129" height="120" as="geometry"/>
                </mxCell>
                <mxCell id="480" value="" style="shape=tableRow;horizontal=0;startSize=0;swimlaneHead=0;swimlaneBody=0;fillColor=none;collapsible=0;dropTarget=0;points=[[0,0.5],[1,0.5]];portConstraint=eastwest;top=0;left=0;right=0;bottom=1;" vertex="1" parent="479">
                    <mxGeometry y="30" width="129" height="30" as="geometry"/>
                </mxCell>
                <mxCell id="481" value="PK" style="shape=partialRectangle;connectable=0;fillColor=none;top=0;left=0;bottom=0;right=0;fontStyle=1;overflow=hidden;fontColor=#FFFFFF;" vertex="1" parent="480">
                    <mxGeometry width="30" height="30" as="geometry">
                        <mxRectangle width="30" height="30" as="alternateBounds"/>
                    </mxGeometry>
                </mxCell>
                <mxCell id="482" value="id_studente" style="shape=partialRectangle;connectable=0;fillColor=none;top=0;left=0;bottom=0;right=0;align=left;spacingLeft=6;fontStyle=1;overflow=hidden;fontColor=#FFFFFF;strokeColor=#FFFFFF;" vertex="1" parent="480">
                    <mxGeometry x="30" width="99" height="30" as="geometry">
                        <mxRectangle width="99" height="30" as="alternateBounds"/>
                    </mxGeometry>
                </mxCell>
                <mxCell id="483" value="" style="shape=tableRow;horizontal=0;startSize=0;swimlaneHead=0;swimlaneBody=0;fillColor=none;collapsible=0;dropTarget=0;points=[[0,0.5],[1,0.5]];portConstraint=eastwest;top=0;left=0;right=0;bottom=0;" vertex="1" parent="479">
                    <mxGeometry y="60" width="129" height="30" as="geometry"/>
                </mxCell>
                <mxCell id="484" value="" style="shape=partialRectangle;connectable=0;fillColor=none;top=0;left=0;bottom=0;right=0;editable=1;overflow=hidden;fontColor=#FFFFFF;" vertex="1" parent="483">
                    <mxGeometry width="30" height="30" as="geometry">
                        <mxRectangle width="30" height="30" as="alternateBounds"/>
                    </mxGeometry>
                </mxCell>
                <mxCell id="485" value="nome_studente" style="shape=partialRectangle;connectable=0;fillColor=none;top=0;left=0;bottom=0;right=0;align=left;spacingLeft=6;overflow=hidden;fontColor=#FFFFFF;" vertex="1" parent="483">
                    <mxGeometry x="30" width="99" height="30" as="geometry">
                        <mxRectangle width="99" height="30" as="alternateBounds"/>
                    </mxGeometry>
                </mxCell>
                <mxCell id="486" value="" style="shape=tableRow;horizontal=0;startSize=0;swimlaneHead=0;swimlaneBody=0;fillColor=none;collapsible=0;dropTarget=0;points=[[0,0.5],[1,0.5]];portConstraint=eastwest;top=0;left=0;right=0;bottom=0;" vertex="1" parent="479">
                    <mxGeometry y="90" width="129" height="28" as="geometry"/>
                </mxCell>
                <mxCell id="487" value="FK" style="shape=partialRectangle;connectable=0;fillColor=none;top=0;left=0;bottom=0;right=0;editable=1;overflow=hidden;fontColor=#FFFFFF;" vertex="1" parent="486">
                    <mxGeometry width="30" height="28" as="geometry">
                        <mxRectangle width="30" height="28" as="alternateBounds"/>
                    </mxGeometry>
                </mxCell>
                <mxCell id="488" value="id_facoltà" style="shape=partialRectangle;connectable=0;fillColor=none;top=0;left=0;bottom=0;right=0;align=left;spacingLeft=6;overflow=hidden;fontColor=#FFFFFF;" vertex="1" parent="486">
                    <mxGeometry x="30" width="99" height="28" as="geometry">
                        <mxRectangle width="99" height="28" as="alternateBounds"/>
                    </mxGeometry>
                </mxCell>
                <mxCell id="530" style="edgeStyle=none;html=1;" edge="1" parent="1" source="491" target="518">
                    <mxGeometry relative="1" as="geometry"/>
                </mxCell>
                <mxCell id="491" value="Appelli_studenti" style="shape=table;startSize=30;container=1;collapsible=1;childLayout=tableLayout;fixedRows=1;rowLines=0;fontStyle=1;align=center;resizeLast=1;labelBackgroundColor=none;labelBorderColor=none;fillColor=none;fontColor=#FFFFFF;strokeColor=#FFFFFF;swimlaneFillColor=#000000;strokeWidth=1;" vertex="1" parent="1">
                    <mxGeometry x="1689.5" y="640" width="170" height="152" as="geometry"/>
                </mxCell>
                <mxCell id="492" value="" style="shape=tableRow;horizontal=0;startSize=0;swimlaneHead=0;swimlaneBody=0;fillColor=none;collapsible=0;dropTarget=0;points=[[0,0.5],[1,0.5]];portConstraint=eastwest;top=0;left=0;right=0;bottom=1;" vertex="1" parent="491">
                    <mxGeometry y="30" width="170" height="30" as="geometry"/>
                </mxCell>
                <mxCell id="493" value="PK" style="shape=partialRectangle;connectable=0;fillColor=none;top=0;left=0;bottom=0;right=0;fontStyle=1;overflow=hidden;fontColor=#FFFFFF;" vertex="1" parent="492">
                    <mxGeometry width="30" height="30" as="geometry">
                        <mxRectangle width="30" height="30" as="alternateBounds"/>
                    </mxGeometry>
                </mxCell>
                <mxCell id="494" value="id_appelli_studenti" style="shape=partialRectangle;connectable=0;fillColor=none;top=0;left=0;bottom=0;right=0;align=left;spacingLeft=6;fontStyle=1;overflow=hidden;fontColor=#FFFFFF;strokeColor=#FFFFFF;" vertex="1" parent="492">
                    <mxGeometry x="30" width="140" height="30" as="geometry">
                        <mxRectangle width="140" height="30" as="alternateBounds"/>
                    </mxGeometry>
                </mxCell>
                <mxCell id="495" value="" style="shape=tableRow;horizontal=0;startSize=0;swimlaneHead=0;swimlaneBody=0;fillColor=none;collapsible=0;dropTarget=0;points=[[0,0.5],[1,0.5]];portConstraint=eastwest;top=0;left=0;right=0;bottom=0;" vertex="1" parent="491">
                    <mxGeometry y="60" width="170" height="33" as="geometry"/>
                </mxCell>
                <mxCell id="496" value="" style="shape=partialRectangle;connectable=0;fillColor=none;top=0;left=0;bottom=0;right=0;editable=1;overflow=hidden;fontColor=#FFFFFF;" vertex="1" parent="495">
                    <mxGeometry width="30" height="33" as="geometry">
                        <mxRectangle width="30" height="33" as="alternateBounds"/>
                    </mxGeometry>
                </mxCell>
                <mxCell id="497" value="voto" style="shape=partialRectangle;connectable=0;fillColor=none;top=0;left=0;bottom=0;right=0;align=left;spacingLeft=6;overflow=hidden;fontColor=#FFFFFF;" vertex="1" parent="495">
                    <mxGeometry x="30" width="140" height="33" as="geometry">
                        <mxRectangle width="140" height="33" as="alternateBounds"/>
                    </mxGeometry>
                </mxCell>
                <mxCell id="498" value="" style="shape=tableRow;horizontal=0;startSize=0;swimlaneHead=0;swimlaneBody=0;fillColor=none;collapsible=0;dropTarget=0;points=[[0,0.5],[1,0.5]];portConstraint=eastwest;top=0;left=0;right=0;bottom=0;" vertex="1" parent="491">
                    <mxGeometry y="93" width="170" height="30" as="geometry"/>
                </mxCell>
                <mxCell id="499" value="FK" style="shape=partialRectangle;connectable=0;fillColor=none;top=0;left=0;bottom=0;right=0;editable=1;overflow=hidden;fontColor=#FFFFFF;" vertex="1" parent="498">
                    <mxGeometry width="30" height="30" as="geometry">
                        <mxRectangle width="30" height="30" as="alternateBounds"/>
                    </mxGeometry>
                </mxCell>
                <mxCell id="500" value="id_studenti" style="shape=partialRectangle;connectable=0;fillColor=none;top=0;left=0;bottom=0;right=0;align=left;spacingLeft=6;overflow=hidden;fontColor=#FFFFFF;" vertex="1" parent="498">
                    <mxGeometry x="30" width="140" height="30" as="geometry">
                        <mxRectangle width="140" height="30" as="alternateBounds"/>
                    </mxGeometry>
                </mxCell>
                <mxCell id="511" style="shape=tableRow;horizontal=0;startSize=0;swimlaneHead=0;swimlaneBody=0;fillColor=none;collapsible=0;dropTarget=0;points=[[0,0.5],[1,0.5]];portConstraint=eastwest;top=0;left=0;right=0;bottom=0;" vertex="1" parent="491">
                    <mxGeometry y="123" width="170" height="27" as="geometry"/>
                </mxCell>
                <mxCell id="512" value="FK" style="shape=partialRectangle;connectable=0;fillColor=none;top=0;left=0;bottom=0;right=0;editable=1;overflow=hidden;fontColor=#FFFFFF;" vertex="1" parent="511">
                    <mxGeometry width="30" height="27" as="geometry">
                        <mxRectangle width="30" height="27" as="alternateBounds"/>
                    </mxGeometry>
                </mxCell>
                <mxCell id="513" value="id_appelli" style="shape=partialRectangle;connectable=0;fillColor=none;top=0;left=0;bottom=0;right=0;align=left;spacingLeft=6;overflow=hidden;fontColor=#FFFFFF;" vertex="1" parent="511">
                    <mxGeometry x="30" width="140" height="27" as="geometry">
                        <mxRectangle width="140" height="27" as="alternateBounds"/>
                    </mxGeometry>
                </mxCell>
                <mxCell id="531" style="edgeStyle=none;html=1;entryX=-0.011;entryY=1.099;entryDx=0;entryDy=0;entryPerimeter=0;" edge="1" parent="1" source="518" target="440">
                    <mxGeometry relative="1" as="geometry"/>
                </mxCell>
                <mxCell id="518" value="Appelli" style="shape=table;startSize=30;container=1;collapsible=1;childLayout=tableLayout;fixedRows=1;rowLines=0;fontStyle=1;align=center;resizeLast=1;labelBackgroundColor=none;labelBorderColor=none;fillColor=none;fontColor=#FFFFFF;strokeColor=#FFFFFF;swimlaneFillColor=#000000;strokeWidth=1;" vertex="1" parent="1">
                    <mxGeometry x="1710" y="870" width="129" height="122" as="geometry"/>
                </mxCell>
                <mxCell id="519" value="" style="shape=tableRow;horizontal=0;startSize=0;swimlaneHead=0;swimlaneBody=0;fillColor=none;collapsible=0;dropTarget=0;points=[[0,0.5],[1,0.5]];portConstraint=eastwest;top=0;left=0;right=0;bottom=1;" vertex="1" parent="518">
                    <mxGeometry y="30" width="129" height="30" as="geometry"/>
                </mxCell>
                <mxCell id="520" value="PK" style="shape=partialRectangle;connectable=0;fillColor=none;top=0;left=0;bottom=0;right=0;fontStyle=1;overflow=hidden;fontColor=#FFFFFF;" vertex="1" parent="519">
                    <mxGeometry width="30" height="30" as="geometry">
                        <mxRectangle width="30" height="30" as="alternateBounds"/>
                    </mxGeometry>
                </mxCell>
                <mxCell id="521" value="id_appelli" style="shape=partialRectangle;connectable=0;fillColor=none;top=0;left=0;bottom=0;right=0;align=left;spacingLeft=6;fontStyle=1;overflow=hidden;fontColor=#FFFFFF;strokeColor=#FFFFFF;" vertex="1" parent="519">
                    <mxGeometry x="30" width="99" height="30" as="geometry">
                        <mxRectangle width="99" height="30" as="alternateBounds"/>
                    </mxGeometry>
                </mxCell>
                <mxCell id="522" value="" style="shape=tableRow;horizontal=0;startSize=0;swimlaneHead=0;swimlaneBody=0;fillColor=none;collapsible=0;dropTarget=0;points=[[0,0.5],[1,0.5]];portConstraint=eastwest;top=0;left=0;right=0;bottom=0;" vertex="1" parent="518">
                    <mxGeometry y="60" width="129" height="30" as="geometry"/>
                </mxCell>
                <mxCell id="523" value="" style="shape=partialRectangle;connectable=0;fillColor=none;top=0;left=0;bottom=0;right=0;editable=1;overflow=hidden;fontColor=#FFFFFF;" vertex="1" parent="522">
                    <mxGeometry width="30" height="30" as="geometry">
                        <mxRectangle width="30" height="30" as="alternateBounds"/>
                    </mxGeometry>
                </mxCell>
                <mxCell id="524" value="data" style="shape=partialRectangle;connectable=0;fillColor=none;top=0;left=0;bottom=0;right=0;align=left;spacingLeft=6;overflow=hidden;fontColor=#FFFFFF;" vertex="1" parent="522">
                    <mxGeometry x="30" width="99" height="30" as="geometry">
                        <mxRectangle width="99" height="30" as="alternateBounds"/>
                    </mxGeometry>
                </mxCell>
                <mxCell id="525" value="" style="shape=tableRow;horizontal=0;startSize=0;swimlaneHead=0;swimlaneBody=0;fillColor=none;collapsible=0;dropTarget=0;points=[[0,0.5],[1,0.5]];portConstraint=eastwest;top=0;left=0;right=0;bottom=0;" vertex="1" parent="518">
                    <mxGeometry y="90" width="129" height="30" as="geometry"/>
                </mxCell>
                <mxCell id="526" value="FK" style="shape=partialRectangle;connectable=0;fillColor=none;top=0;left=0;bottom=0;right=0;editable=1;overflow=hidden;fontColor=#FFFFFF;" vertex="1" parent="525">
                    <mxGeometry width="30" height="30" as="geometry">
                        <mxRectangle width="30" height="30" as="alternateBounds"/>
                    </mxGeometry>
                </mxCell>
                <mxCell id="527" value="id_corso" style="shape=partialRectangle;connectable=0;fillColor=none;top=0;left=0;bottom=0;right=0;align=left;spacingLeft=6;overflow=hidden;fontColor=#FFFFFF;" vertex="1" parent="525">
                    <mxGeometry x="30" width="99" height="30" as="geometry">
                        <mxRectangle width="99" height="30" as="alternateBounds"/>
                    </mxGeometry>
                </mxCell>
                <mxCell id="535" value="1 to many" style="text;html=1;strokeColor=none;fillColor=none;align=center;verticalAlign=middle;whiteSpace=wrap;rounded=0;rotation=90;" vertex="1" parent="1">
                    <mxGeometry x="2000" y="390" width="60" height="30" as="geometry"/>
                </mxCell>
                <mxCell id="537" value="1 to many" style="text;html=1;strokeColor=none;fillColor=none;align=center;verticalAlign=middle;whiteSpace=wrap;rounded=0;rotation=-180;" vertex="1" parent="1">
                    <mxGeometry x="1859.5" y="510" width="60" height="30" as="geometry"/>
                </mxCell>
                <mxCell id="538" value="many to many" style="text;html=1;strokeColor=none;fillColor=none;align=center;verticalAlign=middle;whiteSpace=wrap;rounded=0;rotation=90;" vertex="1" parent="1">
                    <mxGeometry x="1759" y="810" width="60" height="30" as="geometry"/>
                </mxCell>
                <mxCell id="541" value="1 to many" style="text;html=1;strokeColor=none;fillColor=none;align=center;verticalAlign=middle;whiteSpace=wrap;rounded=0;rotation=90;" vertex="1" parent="1">
                    <mxGeometry x="2002" y="588" width="60" height="30" as="geometry"/>
                </mxCell>
                <mxCell id="544" value="many to many" style="text;html=1;strokeColor=none;fillColor=none;align=center;verticalAlign=middle;whiteSpace=wrap;rounded=0;rotation=90;" vertex="1" parent="1">
                    <mxGeometry x="1760" y="588" width="60" height="30" as="geometry"/>
                </mxCell>
                <mxCell id="545" value="many to many" style="text;html=1;strokeColor=none;fillColor=none;align=center;verticalAlign=middle;whiteSpace=wrap;rounded=0;rotation=-40;" vertex="1" parent="1">
                    <mxGeometry x="1853.22" y="788.66" width="60" height="44" as="geometry"/>
                </mxCell>
                <mxCell id="546" value="many to many" style="text;html=1;strokeColor=none;fillColor=none;align=center;verticalAlign=middle;whiteSpace=wrap;rounded=0;rotation=0;" vertex="1" parent="1">
                    <mxGeometry x="2088.5" y="659" width="60" height="44" as="geometry"/>
                </mxCell>
                <mxCell id="547" value="many to many" style="text;html=1;strokeColor=none;fillColor=none;align=center;verticalAlign=middle;whiteSpace=wrap;rounded=0;rotation=0;" vertex="1" parent="1">
                    <mxGeometry x="2298" y="641" width="60" height="44" as="geometry"/>
                </mxCell>
            </root>
        </mxGraphModel>
    </diagram>
</mxfile>